<svg width="58" height="40" viewBox="0 0 58 40" fill="none" xmlns="http://www.w3.org/2000/svg">
<path d="M22.204 23.56H27.884V15.24H24.044L22.204 23.56ZM29.164 13.8C29.324 13.8 29.404 13.88 29.404 14.04V23.56H30.364C30.524 23.56 30.604 23.64 30.604 23.8V26.84C30.604 27 30.524 27.08 30.364 27.08H29.324C29.164 27.08 29.084 27 29.084 26.84V25H21.084V26.84C21.084 27 21.004 27.08 20.844 27.08H19.804C19.644 27.08 19.564 27 19.564 26.84V23.8C19.564 23.64 19.644 23.56 19.804 23.56H20.684L22.764 14.04C22.796 13.88 22.9026 13.8 23.084 13.8H29.164ZM37.7596 19.16C37.7596 18.7973 37.6476 18.5093 37.4236 18.296C37.2103 18.072 36.9223 17.96 36.5596 17.96H34.5596C34.1969 17.96 33.9036 18.072 33.6796 18.296C33.4663 18.5093 33.3596 18.7973 33.3596 19.16V22.68C33.3596 23.0427 33.4663 23.336 33.6796 23.56C33.9036 23.7733 34.1969 23.88 34.5596 23.88H36.5596C36.9223 23.88 37.2103 23.7733 37.4236 23.56C37.6476 23.336 37.7596 23.0427 37.7596 22.68V19.16ZM39.1196 22.68C39.1196 23.48 38.9009 24.0933 38.4636 24.52C38.0369 24.9467 37.4023 25.16 36.5596 25.16H34.5596C33.7169 25.16 33.0769 24.9467 32.6396 24.52C32.2129 24.0933 31.9996 23.48 31.9996 22.68V19.16C31.9996 18.36 32.2129 17.7467 32.6396 17.32C33.0769 16.8933 33.7169 16.68 34.5596 16.68H36.5596C37.4023 16.68 38.0369 16.8933 38.4636 17.32C38.9009 17.7467 39.1196 18.36 39.1196 19.16V22.68ZM46.999 25C46.839 25 46.759 24.92 46.759 24.76V18.12H42.679V24.76C42.679 24.92 42.599 25 42.439 25H41.559C41.399 25 41.319 24.92 41.319 24.76V17.08C41.319 16.92 41.399 16.84 41.559 16.84H47.879C48.039 16.84 48.119 16.92 48.119 17.08V24.76C48.119 24.92 48.039 25 47.879 25H46.999ZM56.0783 19.16C56.0783 18.7973 55.9663 18.5093 55.7423 18.296C55.529 18.072 55.241 17.96 54.8783 17.96H52.8783C52.5157 17.96 52.2223 18.072 51.9983 18.296C51.785 18.5093 51.6783 18.7973 51.6783 19.16V22.68C51.6783 23.0427 51.785 23.336 51.9983 23.56C52.2223 23.7733 52.5157 23.88 52.8783 23.88H54.8783C55.241 23.88 55.529 23.7733 55.7423 23.56C55.9663 23.336 56.0783 23.0427 56.0783 22.68V19.16ZM57.4383 22.68C57.4383 23.48 57.2197 24.0933 56.7823 24.52C56.3557 24.9467 55.721 25.16 54.8783 25.16H52.8783C52.0357 25.16 51.3957 24.9467 50.9583 24.52C50.5317 24.0933 50.3183 23.48 50.3183 22.68V19.16C50.3183 18.36 50.5317 17.7467 50.9583 17.32C51.3957 16.8933 52.0357 16.68 52.8783 16.68H54.8783C55.721 16.68 56.3557 16.8933 56.7823 17.32C57.2197 17.7467 57.4383 18.36 57.4383 19.16V22.68ZM61.1615 22.84C61.0015 23.64 60.7295 24.2267 60.3455 24.6C59.9615 24.9733 59.4068 25.16 58.6815 25.16H58.4415C58.2815 25.16 58.2015 25.08 58.2015 24.92V24.12C58.2015 23.96 58.2815 23.88 58.4415 23.88H58.6815C58.9588 23.88 59.1935 23.7893 59.3855 23.608C59.5881 23.4267 59.7268 23.1707 59.8015 22.84L61.0015 17.08C61.0335 16.92 61.1668 16.84 61.4015 16.84H65.8815C66.0415 16.84 66.1215 16.92 66.1215 17.08V24.76C66.1215 24.92 66.0415 25 65.8815 25H65.0015C64.8415 25 64.7615 24.92 64.7615 24.76V18.12H62.1215L61.1615 22.84ZM69.8446 21.48V24.76C69.8446 24.92 69.7646 25 69.6046 25H68.7246C68.5646 25 68.4846 24.92 68.4846 24.76V17.08C68.4846 16.92 68.5646 16.84 68.7246 16.84H69.6046C69.7646 16.84 69.8446 16.92 69.8446 17.08V20.28H73.9246V17.08C73.9246 16.92 74.0046 16.84 74.1646 16.84H75.0446C75.2046 16.84 75.2846 16.92 75.2846 17.08V24.76C75.2846 24.92 75.2046 25 75.0446 25H74.1646C74.0046 25 73.9246 24.92 73.9246 24.76V21.48H69.8446ZM84.364 16.84C84.524 16.84 84.604 16.92 84.604 17.08V24.76C84.604 24.92 84.524 25 84.364 25H83.484C83.324 25 83.244 24.92 83.244 24.76V18.92H83.164L79.324 24.76C79.2706 24.8453 79.2173 24.9093 79.164 24.952C79.1106 24.984 79.004 25 78.844 25H77.884C77.724 25 77.644 24.92 77.644 24.76V17.08C77.644 16.92 77.724 16.84 77.884 16.84H78.764C78.924 16.84 79.004 16.92 79.004 17.08V22.92H79.084L82.924 17.08C82.9773 16.9947 83.0306 16.936 83.084 16.904C83.1373 16.8613 83.244 16.84 83.404 16.84H84.364ZM88.7996 25C88.6396 25 88.5596 24.92 88.5596 24.76V18.12H86.0796C85.9196 18.12 85.8396 18.04 85.8396 17.88V17.08C85.8396 16.92 85.9196 16.84 86.0796 16.84H92.3996C92.5596 16.84 92.6396 16.92 92.6396 17.08V17.88C92.6396 18.04 92.5596 18.12 92.3996 18.12H89.9196V24.76C89.9196 24.92 89.8396 25 89.6796 25H88.7996ZM99.4046 20.2V19.16C99.4046 18.7973 99.2926 18.5093 99.0686 18.296C98.8553 18.072 98.5673 17.96 98.2046 17.96H96.2846C95.9219 17.96 95.6286 18.072 95.4046 18.296C95.1913 18.5093 95.0846 18.7973 95.0846 19.16V20.2H99.4046ZM95.0846 21.48V22.68C95.0846 23.0427 95.1913 23.336 95.4046 23.56C95.6286 23.7733 95.9219 23.88 96.2846 23.88H98.2046C98.5673 23.88 98.8553 23.7733 99.0686 23.56C99.2926 23.336 99.4046 23.0427 99.4046 22.68V22.6C99.4046 22.44 99.4846 22.36 99.6446 22.36H100.525C100.685 22.36 100.765 22.44 100.765 22.6V22.68C100.765 23.48 100.546 24.0933 100.109 24.52C99.6819 24.9467 99.0473 25.16 98.2046 25.16H96.2846C95.4419 25.16 94.8019 24.9467 94.3646 24.52C93.9379 24.0933 93.7246 23.48 93.7246 22.68V19.16C93.7246 18.36 93.9379 17.7467 94.3646 17.32C94.8019 16.8933 95.4419 16.68 96.2846 16.68H98.2046C99.0473 16.68 99.6819 16.8933 100.109 17.32C100.546 17.7467 100.765 18.36 100.765 19.16V21.24C100.765 21.4 100.685 21.48 100.525 21.48H95.0846ZM104.646 22.84C104.486 23.64 104.214 24.2267 103.83 24.6C103.446 24.9733 102.891 25.16 102.166 25.16H101.926C101.766 25.16 101.686 25.08 101.686 24.92V24.12C101.686 23.96 101.766 23.88 101.926 23.88H102.166C102.443 23.88 102.678 23.7893 102.87 23.608C103.073 23.4267 103.211 23.1707 103.286 22.84L104.486 17.08C104.518 16.92 104.651 16.84 104.886 16.84H109.366C109.526 16.84 109.606 16.92 109.606 17.08V24.76C109.606 24.92 109.526 25 109.366 25H108.486C108.326 25 108.246 24.92 108.246 24.76V18.12H105.606L104.646 22.84ZM116.129 23.72C116.449 23.72 116.7 23.6293 116.881 23.448C117.073 23.256 117.169 23 117.169 22.68V21.88C117.169 21.56 117.073 21.3093 116.881 21.128C116.7 20.936 116.449 20.84 116.129 20.84H113.329V23.72H116.129ZM112.209 25C112.049 25 111.969 24.92 111.969 24.76V17.08C111.969 16.92 112.049 16.84 112.209 16.84H113.089C113.249 16.84 113.329 16.92 113.329 17.08V19.56H116.129C117.729 19.56 118.529 20.3333 118.529 21.88V22.68C118.529 24.2267 117.729 25 116.129 25H112.209ZM121.926 21.48V24.76C121.926 24.92 121.846 25 121.686 25H120.806C120.646 25 120.566 24.92 120.566 24.76V17.08C120.566 16.92 120.646 16.84 120.806 16.84H121.686C121.846 16.84 121.926 16.92 121.926 17.08V20.28H126.006V17.08C126.006 16.92 126.086 16.84 126.246 16.84H127.126C127.286 16.84 127.366 16.92 127.366 17.08V24.76C127.366 24.92 127.286 25 127.126 25H126.246C126.086 25 126.006 24.92 126.006 24.76V21.48H121.926ZM133.565 23.72C133.885 23.72 134.136 23.6293 134.317 23.448C134.509 23.256 134.605 23 134.605 22.68V21.88C134.605 21.56 134.509 21.3093 134.317 21.128C134.136 20.936 133.885 20.84 133.565 20.84H131.085V23.72H133.565ZM129.965 25C129.805 25 129.725 24.92 129.725 24.76V17.08C129.725 16.92 129.805 16.84 129.965 16.84H130.845C131.005 16.84 131.085 16.92 131.085 17.08V19.56H133.565C135.165 19.56 135.965 20.3333 135.965 21.88V22.68C135.965 24.2267 135.165 25 133.565 25H129.965ZM138.685 24.76C138.685 24.92 138.605 25 138.445 25H137.565C137.405 25 137.325 24.92 137.325 24.76V17.08C137.325 16.92 137.405 16.84 137.565 16.84H138.445C138.605 16.84 138.685 16.92 138.685 17.08V24.76ZM146.561 20.2V19.16C146.561 18.7973 146.449 18.5093 146.225 18.296C146.012 18.072 145.724 17.96 145.361 17.96H143.441C143.078 17.96 142.785 18.072 142.561 18.296C142.348 18.5093 142.241 18.7973 142.241 19.16V20.2H146.561ZM142.241 21.48V22.68C142.241 23.0427 142.348 23.336 142.561 23.56C142.785 23.7733 143.078 23.88 143.441 23.88H145.361C145.724 23.88 146.012 23.7733 146.225 23.56C146.449 23.336 146.561 23.0427 146.561 22.68V22.6C146.561 22.44 146.641 22.36 146.801 22.36H147.681C147.841 22.36 147.921 22.44 147.921 22.6V22.68C147.921 23.48 147.702 24.0933 147.265 24.52C146.838 24.9467 146.204 25.16 145.361 25.16H143.441C142.598 25.16 141.958 24.9467 141.521 24.52C141.094 24.0933 140.881 23.48 140.881 22.68V19.16C140.881 18.36 141.094 17.7467 141.521 17.32C141.958 16.8933 142.598 16.68 143.441 16.68H145.361C146.204 16.68 146.838 16.8933 147.265 17.32C147.702 17.7467 147.921 18.36 147.921 19.16V21.24C147.921 21.4 147.841 21.48 147.681 21.48H142.241ZM158.197 17.08C158.229 16.9947 158.272 16.936 158.325 16.904C158.389 16.8613 158.48 16.84 158.597 16.84H159.557C159.728 16.84 159.781 16.92 159.717 17.08L156.597 25C156.373 25.5653 156.155 26.04 155.941 26.424C155.728 26.808 155.499 27.1173 155.253 27.352C155.008 27.5973 154.741 27.7733 154.453 27.88C154.165 27.9867 153.84 28.04 153.477 28.04H153.157C152.997 28.04 152.917 27.96 152.917 27.8V27C152.917 26.84 152.997 26.76 153.157 26.76H153.477C153.883 26.76 154.213 26.6267 154.469 26.36C154.736 26.0933 154.992 25.64 155.237 25L152.117 17.08C152.053 16.92 152.107 16.84 152.277 16.84H153.237C153.355 16.84 153.44 16.8613 153.493 16.904C153.557 16.936 153.605 16.9947 153.637 17.08L155.877 23.08H155.957L158.197 17.08ZM162.266 22.68C162.266 23.0427 162.373 23.336 162.586 23.56C162.81 23.7733 163.103 23.88 163.466 23.88H165.306C165.669 23.88 165.957 23.7733 166.17 23.56C166.394 23.336 166.506 23.0427 166.506 22.68V22.28C166.506 22.12 166.586 22.04 166.746 22.04H167.626C167.786 22.04 167.866 22.12 167.866 22.28V22.68C167.866 23.48 167.647 24.0933 167.21 24.52C166.783 24.9467 166.149 25.16 165.306 25.16H163.466C162.623 25.16 161.983 24.9467 161.546 24.52C161.119 24.0933 160.906 23.48 160.906 22.68V19.16C160.906 18.36 161.119 17.7467 161.546 17.32C161.983 16.8933 162.623 16.68 163.466 16.68H165.306C166.149 16.68 166.783 16.8933 167.21 17.32C167.647 17.7467 167.866 18.36 167.866 19.16V19.56C167.866 19.72 167.786 19.8 167.626 19.8H166.746C166.586 19.8 166.506 19.72 166.506 19.56V19.16C166.506 18.7973 166.394 18.5093 166.17 18.296C165.957 18.072 165.669 17.96 165.306 17.96H163.466C163.103 17.96 162.81 18.072 162.586 18.296C162.373 18.5093 162.266 18.7973 162.266 19.16V22.68ZM171.593 22.84C171.433 23.64 171.161 24.2267 170.777 24.6C170.393 24.9733 169.838 25.16 169.113 25.16H168.873C168.713 25.16 168.633 25.08 168.633 24.92V24.12C168.633 23.96 168.713 23.88 168.873 23.88H169.113C169.39 23.88 169.625 23.7893 169.817 23.608C170.019 23.4267 170.158 23.1707 170.233 22.84L171.433 17.08C171.465 16.92 171.598 16.84 171.833 16.84H176.313C176.473 16.84 176.553 16.92 176.553 17.08V24.76C176.553 24.92 176.473 25 176.313 25H175.433C175.273 25 175.193 24.92 175.193 24.76V18.12H172.553L171.593 22.84ZM183.988 17.08C184.02 16.9947 184.063 16.936 184.116 16.904C184.18 16.8613 184.271 16.84 184.388 16.84H185.348C185.519 16.84 185.572 16.92 185.508 17.08L182.388 25C182.164 25.5653 181.945 26.04 181.732 26.424C181.519 26.808 181.289 27.1173 181.044 27.352C180.799 27.5973 180.532 27.7733 180.244 27.88C179.956 27.9867 179.631 28.04 179.268 28.04H178.948C178.788 28.04 178.708 27.96 178.708 27.8V27C178.708 26.84 178.788 26.76 178.948 26.76H179.268C179.673 26.76 180.004 26.6267 180.26 26.36C180.527 26.0933 180.783 25.64 181.028 25L177.908 17.08C177.844 16.92 177.897 16.84 178.068 16.84H179.028C179.145 16.84 179.231 16.8613 179.284 16.904C179.348 16.936 179.396 16.9947 179.428 17.08L181.668 23.08H181.748L183.988 17.08ZM187.096 25C186.936 25 186.856 24.92 186.856 24.76V17.08C186.856 16.92 186.936 16.84 187.096 16.84H192.376C192.536 16.84 192.616 16.92 192.616 17.08V17.88C192.616 18.04 192.536 18.12 192.376 18.12H188.216V24.76C188.216 24.92 188.136 25 187.976 25H187.096ZM200.423 16.84C200.583 16.84 200.663 16.92 200.663 17.08V24.76C200.663 24.92 200.583 25 200.423 25H199.543C199.383 25 199.303 24.92 199.303 24.76V18.92H199.223L195.383 24.76C195.33 24.8453 195.277 24.9093 195.223 24.952C195.17 24.984 195.063 25 194.903 25H193.943C193.783 25 193.703 24.92 193.703 24.76V17.08C193.703 16.92 193.783 16.84 193.943 16.84H194.823C194.983 16.84 195.063 16.92 195.063 17.08V22.92H195.143L198.983 17.08C199.037 16.9947 199.09 16.936 199.143 16.904C199.197 16.8613 199.303 16.84 199.463 16.84H200.423Z" fill="#7E7E82"/>
</svg>
