<svg width="39" height="16" viewBox="0 0 39 16" fill="none" xmlns="http://www.w3.org/2000/svg">
<path d="M3.20396 10.56H8.88397V2.24H5.04396L3.20396 10.56ZM10.164 0.799999C10.324 0.799999 10.404 0.879999 10.404 1.04V10.56H11.364C11.524 10.56 11.604 10.64 11.604 10.8V13.84C11.604 14 11.524 14.08 11.364 14.08H10.324C10.164 14.08 10.084 14 10.084 13.84V12H2.08396V13.84C2.08396 14 2.00396 14.08 1.84396 14.08H0.803965C0.643965 14.08 0.563965 14 0.563965 13.84V10.8C0.563965 10.64 0.643965 10.56 0.803965 10.56H1.68396L3.76396 1.04C3.79596 0.879999 3.90263 0.799999 4.08397 0.799999H10.164ZM18.7596 6.16C18.7596 5.79733 18.6476 5.50933 18.4236 5.296C18.2103 5.072 17.9223 4.96 17.5596 4.96H15.5596C15.1969 4.96 14.9036 5.072 14.6796 5.296C14.4663 5.50933 14.3596 5.79733 14.3596 6.16V9.68C14.3596 10.0427 14.4663 10.336 14.6796 10.56C14.9036 10.7733 15.1969 10.88 15.5596 10.88H17.5596C17.9223 10.88 18.2103 10.7733 18.4236 10.56C18.6476 10.336 18.7596 10.0427 18.7596 9.68V6.16ZM20.1196 9.68C20.1196 10.48 19.9009 11.0933 19.4636 11.52C19.0369 11.9467 18.4023 12.16 17.5596 12.16H15.5596C14.7169 12.16 14.0769 11.9467 13.6396 11.52C13.2129 11.0933 12.9996 10.48 12.9996 9.68V6.16C12.9996 5.36 13.2129 4.74667 13.6396 4.32C14.0769 3.89333 14.7169 3.68 15.5596 3.68H17.5596C18.4023 3.68 19.0369 3.89333 19.4636 4.32C19.9009 4.74667 20.1196 5.36 20.1196 6.16V9.68ZM27.999 12C27.839 12 27.759 11.92 27.759 11.76V5.12H23.679V11.76C23.679 11.92 23.599 12 23.439 12H22.559C22.399 12 22.319 11.92 22.319 11.76V4.08C22.319 3.92 22.399 3.84 22.559 3.84H28.879C29.039 3.84 29.119 3.92 29.119 4.08V11.76C29.119 11.92 29.039 12 28.879 12H27.999ZM37.0783 6.16C37.0783 5.79733 36.9663 5.50933 36.7423 5.296C36.529 5.072 36.241 4.96 35.8783 4.96H33.8783C33.5157 4.96 33.2223 5.072 32.9983 5.296C32.785 5.50933 32.6783 5.79733 32.6783 6.16V9.68C32.6783 10.0427 32.785 10.336 32.9983 10.56C33.2223 10.7733 33.5157 10.88 33.8783 10.88H35.8783C36.241 10.88 36.529 10.7733 36.7423 10.56C36.9663 10.336 37.0783 10.0427 37.0783 9.68V6.16ZM38.4383 9.68C38.4383 10.48 38.2197 11.0933 37.7823 11.52C37.3557 11.9467 36.721 12.16 35.8783 12.16H33.8783C33.0357 12.16 32.3957 11.9467 31.9583 11.52C31.5317 11.0933 31.3183 10.48 31.3183 9.68V6.16C31.3183 5.36 31.5317 4.74667 31.9583 4.32C32.3957 3.89333 33.0357 3.68 33.8783 3.68H35.8783C36.721 3.68 37.3557 3.89333 37.7823 4.32C38.2197 4.74667 38.4383 5.36 38.4383 6.16V9.68ZM42.1615 9.84C42.0015 10.64 41.7295 11.2267 41.3455 11.6C40.9615 11.9733 40.4068 12.16 39.6815 12.16H39.4415C39.2815 12.16 39.2015 12.08 39.2015 11.92V11.12C39.2015 10.96 39.2815 10.88 39.4415 10.88H39.6815C39.9588 10.88 40.1935 10.7893 40.3855 10.608C40.5881 10.4267 40.7268 10.1707 40.8015 9.84L42.0015 4.08C42.0335 3.92 42.1668 3.84 42.4015 3.84H46.8815C47.0415 3.84 47.1215 3.92 47.1215 4.08V11.76C47.1215 11.92 47.0415 12 46.8815 12H46.0015C45.8415 12 45.7615 11.92 45.7615 11.76V5.12H43.1215L42.1615 9.84ZM50.8446 8.48V11.76C50.8446 11.92 50.7646 12 50.6046 12H49.7246C49.5646 12 49.4846 11.92 49.4846 11.76V4.08C49.4846 3.92 49.5646 3.84 49.7246 3.84H50.6046C50.7646 3.84 50.8446 3.92 50.8446 4.08V7.28H54.9246V4.08C54.9246 3.92 55.0046 3.84 55.1646 3.84H56.0446C56.2046 3.84 56.2846 3.92 56.2846 4.08V11.76C56.2846 11.92 56.2046 12 56.0446 12H55.1646C55.0046 12 54.9246 11.92 54.9246 11.76V8.48H50.8446ZM65.364 3.84C65.524 3.84 65.604 3.92 65.604 4.08V11.76C65.604 11.92 65.524 12 65.364 12H64.484C64.324 12 64.244 11.92 64.244 11.76V5.92H64.164L60.324 11.76C60.2706 11.8453 60.2173 11.9093 60.164 11.952C60.1106 11.984 60.004 12 59.844 12H58.884C58.724 12 58.644 11.92 58.644 11.76V4.08C58.644 3.92 58.724 3.84 58.884 3.84H59.764C59.924 3.84 60.004 3.92 60.004 4.08V9.92H60.084L63.924 4.08C63.9773 3.99467 64.0306 3.936 64.084 3.904C64.1373 3.86133 64.244 3.84 64.404 3.84H65.364ZM69.7996 12C69.6396 12 69.5596 11.92 69.5596 11.76V5.12H67.0796C66.9196 5.12 66.8396 5.04 66.8396 4.88V4.08C66.8396 3.92 66.9196 3.84 67.0796 3.84H73.3996C73.5596 3.84 73.6396 3.92 73.6396 4.08V4.88C73.6396 5.04 73.5596 5.12 73.3996 5.12H70.9196V11.76C70.9196 11.92 70.8396 12 70.6796 12H69.7996ZM80.4046 7.2V6.16C80.4046 5.79733 80.2926 5.50933 80.0686 5.296C79.8553 5.072 79.5673 4.96 79.2046 4.96H77.2846C76.9219 4.96 76.6286 5.072 76.4046 5.296C76.1913 5.50933 76.0846 5.79733 76.0846 6.16V7.2H80.4046ZM76.0846 8.48V9.68C76.0846 10.0427 76.1913 10.336 76.4046 10.56C76.6286 10.7733 76.9219 10.88 77.2846 10.88H79.2046C79.5673 10.88 79.8553 10.7733 80.0686 10.56C80.2926 10.336 80.4046 10.0427 80.4046 9.68V9.6C80.4046 9.44 80.4846 9.36 80.6446 9.36H81.5246C81.6846 9.36 81.7646 9.44 81.7646 9.6V9.68C81.7646 10.48 81.5459 11.0933 81.1086 11.52C80.6819 11.9467 80.0473 12.16 79.2046 12.16H77.2846C76.4419 12.16 75.8019 11.9467 75.3646 11.52C74.9379 11.0933 74.7246 10.48 74.7246 9.68V6.16C74.7246 5.36 74.9379 4.74667 75.3646 4.32C75.8019 3.89333 76.4419 3.68 77.2846 3.68H79.2046C80.0473 3.68 80.6819 3.89333 81.1086 4.32C81.5459 4.74667 81.7646 5.36 81.7646 6.16V8.24C81.7646 8.4 81.6846 8.48 81.5246 8.48H76.0846ZM85.6458 9.84C85.4858 10.64 85.2138 11.2267 84.8298 11.6C84.4458 11.9733 83.8912 12.16 83.1658 12.16H82.9258C82.7658 12.16 82.6858 12.08 82.6858 11.92V11.12C82.6858 10.96 82.7658 10.88 82.9258 10.88H83.1658C83.4432 10.88 83.6778 10.7893 83.8698 10.608C84.0725 10.4267 84.2112 10.1707 84.2858 9.84L85.4858 4.08C85.5178 3.92 85.6512 3.84 85.8858 3.84H90.3658C90.5258 3.84 90.6058 3.92 90.6058 4.08V11.76C90.6058 11.92 90.5258 12 90.3658 12H89.4858C89.3258 12 89.2458 11.92 89.2458 11.76V5.12H86.6058L85.6458 9.84ZM97.129 10.72C97.449 10.72 97.6996 10.6293 97.881 10.448C98.073 10.256 98.169 10 98.169 9.68V8.88C98.169 8.56 98.073 8.30933 97.881 8.128C97.6996 7.936 97.449 7.84 97.129 7.84H94.329V10.72H97.129ZM93.209 12C93.049 12 92.969 11.92 92.969 11.76V4.08C92.969 3.92 93.049 3.84 93.209 3.84H94.089C94.249 3.84 94.329 3.92 94.329 4.08V6.56H97.129C98.729 6.56 99.529 7.33333 99.529 8.88V9.68C99.529 11.2267 98.729 12 97.129 12H93.209ZM102.926 8.48V11.76C102.926 11.92 102.846 12 102.686 12H101.806C101.646 12 101.566 11.92 101.566 11.76V4.08C101.566 3.92 101.646 3.84 101.806 3.84H102.686C102.846 3.84 102.926 3.92 102.926 4.08V7.28H107.006V4.08C107.006 3.92 107.086 3.84 107.246 3.84H108.126C108.286 3.84 108.366 3.92 108.366 4.08V11.76C108.366 11.92 108.286 12 108.126 12H107.246C107.086 12 107.006 11.92 107.006 11.76V8.48H102.926ZM114.565 10.72C114.885 10.72 115.136 10.6293 115.317 10.448C115.509 10.256 115.605 10 115.605 9.68V8.88C115.605 8.56 115.509 8.30933 115.317 8.128C115.136 7.936 114.885 7.84 114.565 7.84H112.085V10.72H114.565ZM110.965 12C110.805 12 110.725 11.92 110.725 11.76V4.08C110.725 3.92 110.805 3.84 110.965 3.84H111.845C112.005 3.84 112.085 3.92 112.085 4.08V6.56H114.565C116.165 6.56 116.965 7.33333 116.965 8.88V9.68C116.965 11.2267 116.165 12 114.565 12H110.965ZM119.685 11.76C119.685 11.92 119.605 12 119.445 12H118.565C118.405 12 118.325 11.92 118.325 11.76V4.08C118.325 3.92 118.405 3.84 118.565 3.84H119.445C119.605 3.84 119.685 3.92 119.685 4.08V11.76ZM127.561 7.2V6.16C127.561 5.79733 127.449 5.50933 127.225 5.296C127.012 5.072 126.724 4.96 126.361 4.96H124.441C124.078 4.96 123.785 5.072 123.561 5.296C123.348 5.50933 123.241 5.79733 123.241 6.16V7.2H127.561ZM123.241 8.48V9.68C123.241 10.0427 123.348 10.336 123.561 10.56C123.785 10.7733 124.078 10.88 124.441 10.88H126.361C126.724 10.88 127.012 10.7733 127.225 10.56C127.449 10.336 127.561 10.0427 127.561 9.68V9.6C127.561 9.44 127.641 9.36 127.801 9.36H128.681C128.841 9.36 128.921 9.44 128.921 9.6V9.68C128.921 10.48 128.702 11.0933 128.265 11.52C127.838 11.9467 127.204 12.16 126.361 12.16H124.441C123.598 12.16 122.958 11.9467 122.521 11.52C122.094 11.0933 121.881 10.48 121.881 9.68V6.16C121.881 5.36 122.094 4.74667 122.521 4.32C122.958 3.89333 123.598 3.68 124.441 3.68H126.361C127.204 3.68 127.838 3.89333 128.265 4.32C128.702 4.74667 128.921 5.36 128.921 6.16V8.24C128.921 8.4 128.841 8.48 128.681 8.48H123.241ZM139.197 4.08C139.229 3.99467 139.272 3.936 139.325 3.904C139.389 3.86133 139.48 3.84 139.597 3.84H140.557C140.728 3.84 140.781 3.92 140.717 4.08L137.597 12C137.373 12.5653 137.155 13.04 136.941 13.424C136.728 13.808 136.499 14.1173 136.253 14.352C136.008 14.5973 135.741 14.7733 135.453 14.88C135.165 14.9867 134.84 15.04 134.477 15.04H134.157C133.997 15.04 133.917 14.96 133.917 14.8V14C133.917 13.84 133.997 13.76 134.157 13.76H134.477C134.883 13.76 135.213 13.6267 135.469 13.36C135.736 13.0933 135.992 12.64 136.237 12L133.117 4.08C133.053 3.92 133.107 3.84 133.277 3.84H134.237C134.355 3.84 134.44 3.86133 134.493 3.904C134.557 3.936 134.605 3.99467 134.637 4.08L136.877 10.08H136.957L139.197 4.08ZM143.266 9.68C143.266 10.0427 143.373 10.336 143.586 10.56C143.81 10.7733 144.103 10.88 144.466 10.88H146.306C146.669 10.88 146.957 10.7733 147.17 10.56C147.394 10.336 147.506 10.0427 147.506 9.68V9.28C147.506 9.12 147.586 9.04 147.746 9.04H148.626C148.786 9.04 148.866 9.12 148.866 9.28V9.68C148.866 10.48 148.647 11.0933 148.21 11.52C147.783 11.9467 147.149 12.16 146.306 12.16H144.466C143.623 12.16 142.983 11.9467 142.546 11.52C142.119 11.0933 141.906 10.48 141.906 9.68V6.16C141.906 5.36 142.119 4.74667 142.546 4.32C142.983 3.89333 143.623 3.68 144.466 3.68H146.306C147.149 3.68 147.783 3.89333 148.21 4.32C148.647 4.74667 148.866 5.36 148.866 6.16V6.56C148.866 6.72 148.786 6.8 148.626 6.8H147.746C147.586 6.8 147.506 6.72 147.506 6.56V6.16C147.506 5.79733 147.394 5.50933 147.17 5.296C146.957 5.072 146.669 4.96 146.306 4.96H144.466C144.103 4.96 143.81 5.072 143.586 5.296C143.373 5.50933 143.266 5.79733 143.266 6.16V9.68ZM152.593 9.84C152.433 10.64 152.161 11.2267 151.777 11.6C151.393 11.9733 150.838 12.16 150.113 12.16H149.873C149.713 12.16 149.633 12.08 149.633 11.92V11.12C149.633 10.96 149.713 10.88 149.873 10.88H150.113C150.39 10.88 150.625 10.7893 150.817 10.608C151.019 10.4267 151.158 10.1707 151.233 9.84L152.433 4.08C152.465 3.92 152.598 3.84 152.833 3.84H157.313C157.473 3.84 157.553 3.92 157.553 4.08V11.76C157.553 11.92 157.473 12 157.313 12H156.433C156.273 12 156.193 11.92 156.193 11.76V5.12H153.553L152.593 9.84ZM164.988 4.08C165.02 3.99467 165.063 3.936 165.116 3.904C165.18 3.86133 165.271 3.84 165.388 3.84H166.348C166.519 3.84 166.572 3.92 166.508 4.08L163.388 12C163.164 12.5653 162.945 13.04 162.732 13.424C162.519 13.808 162.289 14.1173 162.044 14.352C161.799 14.5973 161.532 14.7733 161.244 14.88C160.956 14.9867 160.631 15.04 160.268 15.04H159.948C159.788 15.04 159.708 14.96 159.708 14.8V14C159.708 13.84 159.788 13.76 159.948 13.76H160.268C160.673 13.76 161.004 13.6267 161.26 13.36C161.527 13.0933 161.783 12.64 162.028 12L158.908 4.08C158.844 3.92 158.897 3.84 159.068 3.84H160.028C160.145 3.84 160.231 3.86133 160.284 3.904C160.348 3.936 160.396 3.99467 160.428 4.08L162.668 10.08H162.748L164.988 4.08ZM168.096 12C167.936 12 167.856 11.92 167.856 11.76V4.08C167.856 3.92 167.936 3.84 168.096 3.84H173.376C173.536 3.84 173.616 3.92 173.616 4.08V4.88C173.616 5.04 173.536 5.12 173.376 5.12H169.216V11.76C169.216 11.92 169.136 12 168.976 12H168.096ZM181.423 3.84C181.583 3.84 181.663 3.92 181.663 4.08V11.76C181.663 11.92 181.583 12 181.423 12H180.543C180.383 12 180.303 11.92 180.303 11.76V5.92H180.223L176.383 11.76C176.33 11.8453 176.277 11.9093 176.223 11.952C176.17 11.984 176.063 12 175.903 12H174.943C174.783 12 174.703 11.92 174.703 11.76V4.08C174.703 3.92 174.783 3.84 174.943 3.84H175.823C175.983 3.84 176.063 3.92 176.063 4.08V9.92H176.143L179.983 4.08C180.037 3.99467 180.09 3.936 180.143 3.904C180.197 3.86133 180.303 3.84 180.463 3.84H181.423Z" fill="#7E7E82"/>
</svg>
