<svg width="182" height="16" viewBox="0 0 182 16" fill="none" xmlns="http://www.w3.org/2000/svg">
<path d="M2.64 10.56H8.32V2.24H4.48L2.64 10.56ZM9.6 0.799999C9.76 0.799999 9.84 0.879999 9.84 1.04V10.56H10.8C10.96 10.56 11.04 10.64 11.04 10.8V13.84C11.04 14 10.96 14.08 10.8 14.08H9.76C9.6 14.08 9.52 14 9.52 13.84V12H1.52V13.84C1.52 14 1.44 14.08 1.28 14.08H0.24C0.08 14.08 0 14 0 13.84V10.8C0 10.64 0.08 10.56 0.24 10.56H1.12L3.2 1.04C3.232 0.879999 3.33867 0.799999 3.52 0.799999H9.6ZM18.1956 6.16C18.1956 5.79733 18.0836 5.50933 17.8596 5.296C17.6463 5.072 17.3583 4.96 16.9956 4.96H14.9956C14.633 4.96 14.3396 5.072 14.1156 5.296C13.9023 5.50933 13.7956 5.79733 13.7956 6.16V9.68C13.7956 10.0427 13.9023 10.336 14.1156 10.56C14.3396 10.7733 14.633 10.88 14.9956 10.88H16.9956C17.3583 10.88 17.6463 10.7733 17.8596 10.56C18.0836 10.336 18.1956 10.0427 18.1956 9.68V6.16ZM19.5556 9.68C19.5556 10.48 19.337 11.0933 18.8996 11.52C18.473 11.9467 17.8383 12.16 16.9956 12.16H14.9956C14.153 12.16 13.513 11.9467 13.0756 11.52C12.649 11.0933 12.4356 10.48 12.4356 9.68V6.16C12.4356 5.36 12.649 4.74667 13.0756 4.32C13.513 3.89333 14.153 3.68 14.9956 3.68H16.9956C17.8383 3.68 18.473 3.89333 18.8996 4.32C19.337 4.74667 19.5556 5.36 19.5556 6.16V9.68ZM27.435 12C27.275 12 27.195 11.92 27.195 11.76V5.12H23.115V11.76C23.115 11.92 23.035 12 22.875 12H21.995C21.835 12 21.755 11.92 21.755 11.76V4.08C21.755 3.92 21.835 3.84 21.995 3.84H28.315C28.475 3.84 28.555 3.92 28.555 4.08V11.76C28.555 11.92 28.475 12 28.315 12H27.435ZM36.5144 6.16C36.5144 5.79733 36.4024 5.50933 36.1784 5.296C35.965 5.072 35.677 4.96 35.3144 4.96H33.3144C32.9517 4.96 32.6584 5.072 32.4344 5.296C32.221 5.50933 32.1144 5.79733 32.1144 6.16V9.68C32.1144 10.0427 32.221 10.336 32.4344 10.56C32.6584 10.7733 32.9517 10.88 33.3144 10.88H35.3144C35.677 10.88 35.965 10.7733 36.1784 10.56C36.4024 10.336 36.5144 10.0427 36.5144 9.68V6.16ZM37.8744 9.68C37.8744 10.48 37.6557 11.0933 37.2184 11.52C36.7917 11.9467 36.157 12.16 35.3144 12.16H33.3144C32.4717 12.16 31.8317 11.9467 31.3944 11.52C30.9677 11.0933 30.7544 10.48 30.7544 9.68V6.16C30.7544 5.36 30.9677 4.74667 31.3944 4.32C31.8317 3.89333 32.4717 3.68 33.3144 3.68H35.3144C36.157 3.68 36.7917 3.89333 37.2184 4.32C37.6557 4.74667 37.8744 5.36 37.8744 6.16V9.68ZM41.5975 9.84C41.4375 10.64 41.1655 11.2267 40.7815 11.6C40.3975 11.9733 39.8428 12.16 39.1175 12.16H38.8775C38.7175 12.16 38.6375 12.08 38.6375 11.92V11.12C38.6375 10.96 38.7175 10.88 38.8775 10.88H39.1175C39.3948 10.88 39.6295 10.7893 39.8215 10.608C40.0242 10.4267 40.1628 10.1707 40.2375 9.84L41.4375 4.08C41.4695 3.92 41.6028 3.84 41.8375 3.84H46.3175C46.4775 3.84 46.5575 3.92 46.5575 4.08V11.76C46.5575 11.92 46.4775 12 46.3175 12H45.4375C45.2775 12 45.1975 11.92 45.1975 11.76V5.12H42.5575L41.5975 9.84ZM50.2806 8.48V11.76C50.2806 11.92 50.2006 12 50.0406 12H49.1606C49.0006 12 48.9206 11.92 48.9206 11.76V4.08C48.9206 3.92 49.0006 3.84 49.1606 3.84H50.0406C50.2006 3.84 50.2806 3.92 50.2806 4.08V7.28H54.3606V4.08C54.3606 3.92 54.4406 3.84 54.6006 3.84H55.4806C55.6406 3.84 55.7206 3.92 55.7206 4.08V11.76C55.7206 11.92 55.6406 12 55.4806 12H54.6006C54.4406 12 54.3606 11.92 54.3606 11.76V8.48H50.2806ZM64.8 3.84C64.96 3.84 65.04 3.92 65.04 4.08V11.76C65.04 11.92 64.96 12 64.8 12H63.92C63.76 12 63.68 11.92 63.68 11.76V5.92H63.6L59.76 11.76C59.7067 11.8453 59.6533 11.9093 59.6 11.952C59.5467 11.984 59.44 12 59.28 12H58.32C58.16 12 58.08 11.92 58.08 11.76V4.08C58.08 3.92 58.16 3.84 58.32 3.84H59.2C59.36 3.84 59.44 3.92 59.44 4.08V9.92H59.52L63.36 4.08C63.4133 3.99467 63.4667 3.936 63.52 3.904C63.5733 3.86133 63.68 3.84 63.84 3.84H64.8ZM69.2356 12C69.0756 12 68.9956 11.92 68.9956 11.76V5.12H66.5156C66.3556 5.12 66.2756 5.04 66.2756 4.88V4.08C66.2756 3.92 66.3556 3.84 66.5156 3.84H72.8356C72.9956 3.84 73.0756 3.92 73.0756 4.08V4.88C73.0756 5.04 72.9956 5.12 72.8356 5.12H70.3556V11.76C70.3556 11.92 70.2756 12 70.1156 12H69.2356ZM79.8406 7.2V6.16C79.8406 5.79733 79.7286 5.50933 79.5046 5.296C79.2913 5.072 79.0033 4.96 78.6406 4.96H76.7206C76.358 4.96 76.0646 5.072 75.8406 5.296C75.6273 5.50933 75.5206 5.79733 75.5206 6.16V7.2H79.8406ZM75.5206 8.48V9.68C75.5206 10.0427 75.6273 10.336 75.8406 10.56C76.0646 10.7733 76.358 10.88 76.7206 10.88H78.6406C79.0033 10.88 79.2913 10.7733 79.5046 10.56C79.7286 10.336 79.8406 10.0427 79.8406 9.68V9.6C79.8406 9.44 79.9206 9.36 80.0806 9.36H80.9606C81.1206 9.36 81.2006 9.44 81.2006 9.6V9.68C81.2006 10.48 80.982 11.0933 80.5446 11.52C80.118 11.9467 79.4833 12.16 78.6406 12.16H76.7206C75.878 12.16 75.238 11.9467 74.8006 11.52C74.374 11.0933 74.1606 10.48 74.1606 9.68V6.16C74.1606 5.36 74.374 4.74667 74.8006 4.32C75.238 3.89333 75.878 3.68 76.7206 3.68H78.6406C79.4833 3.68 80.118 3.89333 80.5446 4.32C80.982 4.74667 81.2006 5.36 81.2006 6.16V8.24C81.2006 8.4 81.1206 8.48 80.9606 8.48H75.5206ZM85.0819 9.84C84.9219 10.64 84.6499 11.2267 84.2659 11.6C83.8819 11.9733 83.3272 12.16 82.6019 12.16H82.3619C82.2019 12.16 82.1219 12.08 82.1219 11.92V11.12C82.1219 10.96 82.2019 10.88 82.3619 10.88H82.6019C82.8792 10.88 83.1139 10.7893 83.3059 10.608C83.5085 10.4267 83.6472 10.1707 83.7219 9.84L84.9219 4.08C84.9539 3.92 85.0872 3.84 85.3219 3.84H89.8019C89.9619 3.84 90.0419 3.92 90.0419 4.08V11.76C90.0419 11.92 89.9619 12 89.8019 12H88.9219C88.7619 12 88.6819 11.92 88.6819 11.76V5.12H86.0419L85.0819 9.84ZM96.565 10.72C96.885 10.72 97.1357 10.6293 97.317 10.448C97.509 10.256 97.605 10 97.605 9.68V8.88C97.605 8.56 97.509 8.30933 97.317 8.128C97.1357 7.936 96.885 7.84 96.565 7.84H93.765V10.72H96.565ZM92.645 12C92.485 12 92.405 11.92 92.405 11.76V4.08C92.405 3.92 92.485 3.84 92.645 3.84H93.525C93.685 3.84 93.765 3.92 93.765 4.08V6.56H96.565C98.165 6.56 98.965 7.33333 98.965 8.88V9.68C98.965 11.2267 98.165 12 96.565 12H92.645ZM102.362 8.48V11.76C102.362 11.92 102.282 12 102.122 12H101.242C101.082 12 101.002 11.92 101.002 11.76V4.08C101.002 3.92 101.082 3.84 101.242 3.84H102.122C102.282 3.84 102.362 3.92 102.362 4.08V7.28H106.442V4.08C106.442 3.92 106.522 3.84 106.682 3.84H107.562C107.722 3.84 107.802 3.92 107.802 4.08V11.76C107.802 11.92 107.722 12 107.562 12H106.682C106.522 12 106.442 11.92 106.442 11.76V8.48H102.362ZM114.001 10.72C114.321 10.72 114.572 10.6293 114.753 10.448C114.945 10.256 115.041 10 115.041 9.68V8.88C115.041 8.56 114.945 8.30933 114.753 8.128C114.572 7.936 114.321 7.84 114.001 7.84H111.521V10.72H114.001ZM110.401 12C110.241 12 110.161 11.92 110.161 11.76V4.08C110.161 3.92 110.241 3.84 110.401 3.84H111.281C111.441 3.84 111.521 3.92 111.521 4.08V6.56H114.001C115.601 6.56 116.401 7.33333 116.401 8.88V9.68C116.401 11.2267 115.601 12 114.001 12H110.401ZM119.121 11.76C119.121 11.92 119.041 12 118.881 12H118.001C117.841 12 117.761 11.92 117.761 11.76V4.08C117.761 3.92 117.841 3.84 118.001 3.84H118.881C119.041 3.84 119.121 3.92 119.121 4.08V11.76ZM126.997 7.2V6.16C126.997 5.79733 126.885 5.50933 126.661 5.296C126.448 5.072 126.16 4.96 125.797 4.96H123.877C123.514 4.96 123.221 5.072 122.997 5.296C122.784 5.50933 122.677 5.79733 122.677 6.16V7.2H126.997ZM122.677 8.48V9.68C122.677 10.0427 122.784 10.336 122.997 10.56C123.221 10.7733 123.514 10.88 123.877 10.88H125.797C126.16 10.88 126.448 10.7733 126.661 10.56C126.885 10.336 126.997 10.0427 126.997 9.68V9.6C126.997 9.44 127.077 9.36 127.237 9.36H128.117C128.277 9.36 128.357 9.44 128.357 9.6V9.68C128.357 10.48 128.138 11.0933 127.701 11.52C127.274 11.9467 126.64 12.16 125.797 12.16H123.877C123.034 12.16 122.394 11.9467 121.957 11.52C121.53 11.0933 121.317 10.48 121.317 9.68V6.16C121.317 5.36 121.53 4.74667 121.957 4.32C122.394 3.89333 123.034 3.68 123.877 3.68H125.797C126.64 3.68 127.274 3.89333 127.701 4.32C128.138 4.74667 128.357 5.36 128.357 6.16V8.24C128.357 8.4 128.277 8.48 128.117 8.48H122.677ZM138.633 4.08C138.665 3.99467 138.708 3.936 138.761 3.904C138.825 3.86133 138.916 3.84 139.033 3.84H139.993C140.164 3.84 140.217 3.92 140.153 4.08L137.033 12C136.809 12.5653 136.591 13.04 136.377 13.424C136.164 13.808 135.935 14.1173 135.689 14.352C135.444 14.5973 135.177 14.7733 134.889 14.88C134.601 14.9867 134.276 15.04 133.913 15.04H133.593C133.433 15.04 133.353 14.96 133.353 14.8V14C133.353 13.84 133.433 13.76 133.593 13.76H133.913C134.319 13.76 134.649 13.6267 134.905 13.36C135.172 13.0933 135.428 12.64 135.673 12L132.553 4.08C132.489 3.92 132.543 3.84 132.713 3.84H133.673C133.791 3.84 133.876 3.86133 133.929 3.904C133.993 3.936 134.041 3.99467 134.073 4.08L136.313 10.08H136.393L138.633 4.08ZM142.702 9.68C142.702 10.0427 142.809 10.336 143.022 10.56C143.246 10.7733 143.539 10.88 143.902 10.88H145.742C146.105 10.88 146.393 10.7733 146.606 10.56C146.83 10.336 146.942 10.0427 146.942 9.68V9.28C146.942 9.12 147.022 9.04 147.182 9.04H148.062C148.222 9.04 148.302 9.12 148.302 9.28V9.68C148.302 10.48 148.083 11.0933 147.646 11.52C147.219 11.9467 146.585 12.16 145.742 12.16H143.902C143.059 12.16 142.419 11.9467 141.982 11.52C141.555 11.0933 141.342 10.48 141.342 9.68V6.16C141.342 5.36 141.555 4.74667 141.982 4.32C142.419 3.89333 143.059 3.68 143.902 3.68H145.742C146.585 3.68 147.219 3.89333 147.646 4.32C148.083 4.74667 148.302 5.36 148.302 6.16V6.56C148.302 6.72 148.222 6.8 148.062 6.8H147.182C147.022 6.8 146.942 6.72 146.942 6.56V6.16C146.942 5.79733 146.83 5.50933 146.606 5.296C146.393 5.072 146.105 4.96 145.742 4.96H143.902C143.539 4.96 143.246 5.072 143.022 5.296C142.809 5.50933 142.702 5.79733 142.702 6.16V9.68ZM152.029 9.84C151.869 10.64 151.597 11.2267 151.213 11.6C150.829 11.9733 150.274 12.16 149.549 12.16H149.309C149.149 12.16 149.069 12.08 149.069 11.92V11.12C149.069 10.96 149.149 10.88 149.309 10.88H149.549C149.826 10.88 150.061 10.7893 150.253 10.608C150.455 10.4267 150.594 10.1707 150.669 9.84L151.869 4.08C151.901 3.92 152.034 3.84 152.269 3.84H156.749C156.909 3.84 156.989 3.92 156.989 4.08V11.76C156.989 11.92 156.909 12 156.749 12H155.869C155.709 12 155.629 11.92 155.629 11.76V5.12H152.989L152.029 9.84ZM164.424 4.08C164.456 3.99467 164.499 3.936 164.552 3.904C164.616 3.86133 164.707 3.84 164.824 3.84H165.784C165.955 3.84 166.008 3.92 165.944 4.08L162.824 12C162.6 12.5653 162.381 13.04 162.168 13.424C161.955 13.808 161.725 14.1173 161.48 14.352C161.235 14.5973 160.968 14.7733 160.68 14.88C160.392 14.9867 160.067 15.04 159.704 15.04H159.384C159.224 15.04 159.144 14.96 159.144 14.8V14C159.144 13.84 159.224 13.76 159.384 13.76H159.704C160.109 13.76 160.44 13.6267 160.696 13.36C160.963 13.0933 161.219 12.64 161.464 12L158.344 4.08C158.28 3.92 158.333 3.84 158.504 3.84H159.464C159.581 3.84 159.667 3.86133 159.72 3.904C159.784 3.936 159.832 3.99467 159.864 4.08L162.104 10.08H162.184L164.424 4.08ZM167.532 12C167.372 12 167.292 11.92 167.292 11.76V4.08C167.292 3.92 167.372 3.84 167.532 3.84H172.812C172.972 3.84 173.052 3.92 173.052 4.08V4.88C173.052 5.04 172.972 5.12 172.812 5.12H168.652V11.76C168.652 11.92 168.572 12 168.412 12H167.532ZM180.859 3.84C181.019 3.84 181.099 3.92 181.099 4.08V11.76C181.099 11.92 181.019 12 180.859 12H179.979C179.819 12 179.739 11.92 179.739 11.76V5.92H179.659L175.819 11.76C175.766 11.8453 175.713 11.9093 175.659 11.952C175.606 11.984 175.499 12 175.339 12H174.379C174.219 12 174.139 11.92 174.139 11.76V4.08C174.139 3.92 174.219 3.84 174.379 3.84H175.259C175.419 3.84 175.499 3.92 175.499 4.08V9.92H175.579L179.419 4.08C179.473 3.99467 179.526 3.936 179.579 3.904C179.633 3.86133 179.739 3.84 179.899 3.84H180.859Z" fill="#7E7E82"/>
</svg>
