<svg width="246" height="40" viewBox="0 0 246 40" fill="none" xmlns="http://www.w3.org/2000/svg">
<rect x="-1" y="1" width="244" height="38" rx="5" transform="matrix(-1 0 0 1 244 0)" fill="white" stroke="#B8FFEC" stroke-width="2"/>
<path d="M24.2176 20.04C25.1243 20.04 25.5776 19.5867 25.5776 18.68V16.6C25.5776 15.6933 25.1243 15.24 24.2176 15.24H19.6576V20.04H24.2176ZM19.6576 21.48V24.76C19.6576 24.92 19.5776 25 19.4176 25H18.3776C18.2176 25 18.1376 24.92 18.1376 24.76V14.04C18.1376 13.88 18.2176 13.8 18.3776 13.8H24.2176C26.1376 13.8 27.0976 14.7333 27.0976 16.6V18.68C27.0976 20.5467 26.1376 21.48 24.2176 21.48H19.6576ZM34.8251 20.2V19.16C34.8251 18.7973 34.7131 18.5093 34.4891 18.296C34.2758 18.072 33.9878 17.96 33.6251 17.96H31.7051C31.3424 17.96 31.0491 18.072 30.8251 18.296C30.6118 18.5093 30.5051 18.7973 30.5051 19.16V20.2H34.8251ZM30.5051 21.48V22.68C30.5051 23.0427 30.6118 23.336 30.8251 23.56C31.0491 23.7733 31.3424 23.88 31.7051 23.88H33.6251C33.9878 23.88 34.2758 23.7733 34.4891 23.56C34.7131 23.336 34.8251 23.0427 34.8251 22.68V22.6C34.8251 22.44 34.9051 22.36 35.0651 22.36H35.9451C36.1051 22.36 36.1851 22.44 36.1851 22.6V22.68C36.1851 23.48 35.9664 24.0933 35.5291 24.52C35.1024 24.9467 34.4678 25.16 33.6251 25.16H31.7051C30.8624 25.16 30.2224 24.9467 29.7851 24.52C29.3584 24.0933 29.1451 23.48 29.1451 22.68V19.16C29.1451 18.36 29.3584 17.7467 29.7851 17.32C30.2224 16.8933 30.8624 16.68 31.7051 16.68H33.6251C34.4678 16.68 35.1024 16.8933 35.5291 17.32C35.9664 17.7467 36.1851 18.36 36.1851 19.16V21.24C36.1851 21.4 36.1051 21.48 35.9451 21.48H30.5051ZM43.0263 23.24L45.9063 17.08C45.949 16.9947 45.997 16.936 46.0503 16.904C46.1143 16.8613 46.2263 16.84 46.3863 16.84H47.3463C47.5063 16.84 47.5863 16.92 47.5863 17.08V24.76C47.5863 24.92 47.5063 25 47.3463 25H46.4663C46.3063 25 46.2263 24.92 46.2263 24.76V19.48H46.1463L43.6663 24.76C43.6237 24.8453 43.5703 24.9093 43.5063 24.952C43.453 24.984 43.3463 25 43.1863 25H42.7863C42.6263 25 42.5143 24.984 42.4503 24.952C42.397 24.9093 42.349 24.8453 42.3063 24.76L39.8263 19.48H39.7463V24.76C39.7463 24.92 39.6663 25 39.5063 25H38.6263C38.4663 25 38.3863 24.92 38.3863 24.76V17.08C38.3863 16.92 38.4663 16.84 38.6263 16.84H39.5863C39.7463 16.84 39.853 16.8613 39.9063 16.904C39.9703 16.936 40.0237 16.9947 40.0663 17.08L42.9463 23.24H43.0263ZM55.552 19.16C55.552 18.7973 55.44 18.5093 55.216 18.296C55.0026 18.072 54.7146 17.96 54.352 17.96H52.352C51.9893 17.96 51.696 18.072 51.472 18.296C51.2586 18.5093 51.152 18.7973 51.152 19.16V22.68C51.152 23.0427 51.2586 23.336 51.472 23.56C51.696 23.7733 51.9893 23.88 52.352 23.88H54.352C54.7146 23.88 55.0026 23.7733 55.216 23.56C55.44 23.336 55.552 23.0427 55.552 22.68V19.16ZM56.912 22.68C56.912 23.48 56.6933 24.0933 56.256 24.52C55.8293 24.9467 55.1946 25.16 54.352 25.16H52.352C51.5093 25.16 50.8693 24.9467 50.432 24.52C50.0053 24.0933 49.792 23.48 49.792 22.68V19.16C49.792 18.36 50.0053 17.7467 50.432 17.32C50.8693 16.8933 51.5093 16.68 52.352 16.68H54.352C55.1946 16.68 55.8293 16.8933 56.256 17.32C56.6933 17.7467 56.912 18.36 56.912 19.16V22.68ZM60.4713 21.48V24.76C60.4713 24.92 60.3913 25 60.2313 25H59.3513C59.1913 25 59.1113 24.92 59.1113 24.76V17.08C59.1113 16.92 59.1913 16.84 59.3513 16.84H60.2313C60.3913 16.84 60.4713 16.92 60.4713 17.08V20.28H64.5513V17.08C64.5513 16.92 64.6313 16.84 64.7913 16.84H65.6713C65.8313 16.84 65.9113 16.92 65.9113 17.08V24.76C65.9113 24.92 65.8313 25 65.6713 25H64.7913C64.6313 25 64.5513 24.92 64.5513 24.76V21.48H60.4713ZM70.1107 25C69.9507 25 69.8707 24.92 69.8707 24.76V18.12H67.3907C67.2307 18.12 67.1507 18.04 67.1507 17.88V17.08C67.1507 16.92 67.2307 16.84 67.3907 16.84H73.7107C73.8707 16.84 73.9507 16.92 73.9507 17.08V17.88C73.9507 18.04 73.8707 18.12 73.7107 18.12H71.2307V24.76C71.2307 24.92 71.1507 25 70.9907 25H70.1107ZM81.9157 16.84C82.0757 16.84 82.1557 16.92 82.1557 17.08V24.76C82.1557 24.92 82.0757 25 81.9157 25H81.0357C80.8757 25 80.7957 24.92 80.7957 24.76V18.92H80.7157L76.8757 24.76C76.8224 24.8453 76.7691 24.9093 76.7157 24.952C76.6624 24.984 76.5557 25 76.3957 25H75.4357C75.2757 25 75.1957 24.92 75.1957 24.76V17.08C75.1957 16.92 75.2757 16.84 75.4357 16.84H76.3157C76.4757 16.84 76.5557 16.92 76.5557 17.08V22.92H76.6357L80.4757 17.08C80.5291 16.9947 80.5824 16.936 80.6357 16.904C80.6891 16.8613 80.7957 16.84 80.9557 16.84H81.9157ZM88.9113 23.72C89.274 23.72 89.562 23.6133 89.7753 23.4C89.9993 23.176 90.1113 22.8827 90.1113 22.52V19.16C90.1113 18.7973 89.9993 18.5093 89.7753 18.296C89.562 18.072 89.274 17.96 88.9113 17.96H87.5513C87.0713 17.96 86.6713 18.12 86.3513 18.44C86.0313 18.76 85.8713 19.16 85.8713 19.64V23.72H88.9113ZM85.8713 25V27.8C85.8713 27.96 85.7913 28.04 85.6313 28.04H84.7513C84.5913 28.04 84.5113 27.96 84.5113 27.8V17.08C84.5113 16.92 84.5913 16.84 84.7513 16.84H85.6313C85.7913 16.84 85.8713 16.92 85.8713 17.08V17.64H85.9513C86.0367 17.4587 86.1593 17.2987 86.3193 17.16C86.458 17.0427 86.6393 16.936 86.8633 16.84C87.0873 16.7333 87.37 16.68 87.7113 16.68H88.9113C89.754 16.68 90.3887 16.8933 90.8153 17.32C91.2527 17.7467 91.4713 18.36 91.4713 19.16V22.52C91.4713 23.32 91.2527 23.9333 90.8153 24.36C90.3887 24.7867 89.754 25 88.9113 25H85.8713ZM98.7427 17.08C98.7747 16.9947 98.8174 16.936 98.8707 16.904C98.9347 16.8613 99.0254 16.84 99.1427 16.84H100.103C100.273 16.84 100.327 16.92 100.263 17.08L97.1427 25C96.9187 25.5653 96.7001 26.04 96.4867 26.424C96.2734 26.808 96.0441 27.1173 95.7987 27.352C95.5534 27.5973 95.2867 27.7733 94.9987 27.88C94.7107 27.9867 94.3854 28.04 94.0227 28.04H93.7027C93.5427 28.04 93.4627 27.96 93.4627 27.8V27C93.4627 26.84 93.5427 26.76 93.7027 26.76H94.0227C94.4281 26.76 94.7587 26.6267 95.0147 26.36C95.2814 26.0933 95.5374 25.64 95.7827 25L92.6627 17.08C92.5987 16.92 92.6521 16.84 92.8227 16.84H93.7827C93.9001 16.84 93.9854 16.8613 94.0387 16.904C94.1027 16.936 94.1507 16.9947 94.1827 17.08L96.4227 23.08H96.5027L98.7427 17.08ZM107.131 20.2V19.16C107.131 18.7973 107.019 18.5093 106.795 18.296C106.582 18.072 106.294 17.96 105.931 17.96H104.011C103.649 17.96 103.355 18.072 103.131 18.296C102.918 18.5093 102.811 18.7973 102.811 19.16V20.2H107.131ZM102.811 21.48V22.68C102.811 23.0427 102.918 23.336 103.131 23.56C103.355 23.7733 103.649 23.88 104.011 23.88H105.931C106.294 23.88 106.582 23.7733 106.795 23.56C107.019 23.336 107.131 23.0427 107.131 22.68V22.6C107.131 22.44 107.211 22.36 107.371 22.36H108.251C108.411 22.36 108.491 22.44 108.491 22.6V22.68C108.491 23.48 108.273 24.0933 107.835 24.52C107.409 24.9467 106.774 25.16 105.931 25.16H104.011C103.169 25.16 102.529 24.9467 102.091 24.52C101.665 24.0933 101.451 23.48 101.451 22.68V19.16C101.451 18.36 101.665 17.7467 102.091 17.32C102.529 16.8933 103.169 16.68 104.011 16.68H105.931C106.774 16.68 107.409 16.8933 107.835 17.32C108.273 17.7467 108.491 18.36 108.491 19.16V21.24C108.491 21.4 108.411 21.48 108.251 21.48H102.811ZM115.333 23.24L118.213 17.08C118.255 16.9947 118.303 16.936 118.357 16.904C118.421 16.8613 118.533 16.84 118.693 16.84H119.653C119.813 16.84 119.893 16.92 119.893 17.08V24.76C119.893 24.92 119.813 25 119.653 25H118.773C118.613 25 118.533 24.92 118.533 24.76V19.48H118.453L115.973 24.76C115.93 24.8453 115.877 24.9093 115.813 24.952C115.759 24.984 115.653 25 115.493 25H115.093C114.933 25 114.821 24.984 114.757 24.952C114.703 24.9093 114.655 24.8453 114.613 24.76L112.133 19.48H112.053V24.76C112.053 24.92 111.973 25 111.813 25H110.933C110.773 25 110.693 24.92 110.693 24.76V17.08C110.693 16.92 110.773 16.84 110.933 16.84H111.893C112.053 16.84 112.159 16.8613 112.213 16.904C112.277 16.936 112.33 16.9947 112.373 17.08L115.253 23.24H115.333ZM126.098 23.72C126.418 23.72 126.669 23.6293 126.85 23.448C127.042 23.256 127.138 23 127.138 22.68V21.88C127.138 21.56 127.042 21.3093 126.85 21.128C126.669 20.936 126.418 20.84 126.098 20.84H123.618V23.72H126.098ZM122.498 25C122.338 25 122.258 24.92 122.258 24.76V17.08C122.258 16.92 122.338 16.84 122.498 16.84H123.378C123.538 16.84 123.618 16.92 123.618 17.08V19.56H126.098C127.698 19.56 128.498 20.3333 128.498 21.88V22.68C128.498 24.2267 127.698 25 126.098 25H122.498ZM131.218 24.76C131.218 24.92 131.138 25 130.978 25H130.098C129.938 25 129.858 24.92 129.858 24.76V17.08C129.858 16.92 129.938 16.84 130.098 16.84H130.978C131.138 16.84 131.218 16.92 131.218 17.08V24.76ZM139.094 20.2V19.16C139.094 18.7973 138.982 18.5093 138.758 18.296C138.545 18.072 138.257 17.96 137.894 17.96H135.974C135.611 17.96 135.318 18.072 135.094 18.296C134.881 18.5093 134.774 18.7973 134.774 19.16V20.2H139.094ZM134.774 21.48V22.68C134.774 23.0427 134.881 23.336 135.094 23.56C135.318 23.7733 135.611 23.88 135.974 23.88H137.894C138.257 23.88 138.545 23.7733 138.758 23.56C138.982 23.336 139.094 23.0427 139.094 22.68V22.6C139.094 22.44 139.174 22.36 139.334 22.36H140.214C140.374 22.36 140.454 22.44 140.454 22.6V22.68C140.454 23.48 140.235 24.0933 139.798 24.52C139.371 24.9467 138.737 25.16 137.894 25.16H135.974C135.131 25.16 134.491 24.9467 134.054 24.52C133.627 24.0933 133.414 23.48 133.414 22.68V19.16C133.414 18.36 133.627 17.7467 134.054 17.32C134.491 16.8933 135.131 16.68 135.974 16.68H137.894C138.737 16.68 139.371 16.8933 139.798 17.32C140.235 17.7467 140.454 18.36 140.454 19.16V21.24C140.454 21.4 140.374 21.48 140.214 21.48H134.774ZM150.73 17.08C150.762 16.9947 150.805 16.936 150.858 16.904C150.922 16.8613 151.013 16.84 151.13 16.84H152.09C152.261 16.84 152.314 16.92 152.25 17.08L149.13 25C148.906 25.5653 148.688 26.04 148.474 26.424C148.261 26.808 148.032 27.1173 147.786 27.352C147.541 27.5973 147.274 27.7733 146.986 27.88C146.698 27.9867 146.373 28.04 146.01 28.04H145.69C145.53 28.04 145.45 27.96 145.45 27.8V27C145.45 26.84 145.53 26.76 145.69 26.76H146.01C146.416 26.76 146.746 26.6267 147.002 26.36C147.269 26.0933 147.525 25.64 147.77 25L144.65 17.08C144.586 16.92 144.64 16.84 144.81 16.84H145.77C145.888 16.84 145.973 16.8613 146.026 16.904C146.09 16.936 146.138 16.9947 146.17 17.08L148.41 23.08H148.49L150.73 17.08ZM154.799 22.68C154.799 23.0427 154.906 23.336 155.119 23.56C155.343 23.7733 155.636 23.88 155.999 23.88H157.839C158.202 23.88 158.49 23.7733 158.703 23.56C158.927 23.336 159.039 23.0427 159.039 22.68V22.28C159.039 22.12 159.119 22.04 159.279 22.04H160.159C160.319 22.04 160.399 22.12 160.399 22.28V22.68C160.399 23.48 160.18 24.0933 159.743 24.52C159.316 24.9467 158.682 25.16 157.839 25.16H155.999C155.156 25.16 154.516 24.9467 154.079 24.52C153.652 24.0933 153.439 23.48 153.439 22.68V19.16C153.439 18.36 153.652 17.7467 154.079 17.32C154.516 16.8933 155.156 16.68 155.999 16.68H157.839C158.682 16.68 159.316 16.8933 159.743 17.32C160.18 17.7467 160.399 18.36 160.399 19.16V19.56C160.399 19.72 160.319 19.8 160.159 19.8H159.279C159.119 19.8 159.039 19.72 159.039 19.56V19.16C159.039 18.7973 158.927 18.5093 158.703 18.296C158.49 18.072 158.202 17.96 157.839 17.96H155.999C155.636 17.96 155.343 18.072 155.119 18.296C154.906 18.5093 154.799 18.7973 154.799 19.16V22.68ZM164.286 25C164.126 25 164.046 24.92 164.046 24.76V18.12H161.566C161.406 18.12 161.326 18.04 161.326 17.88V17.08C161.326 16.92 161.406 16.84 161.566 16.84H167.886C168.046 16.84 168.126 16.92 168.126 17.08V17.88C168.126 18.04 168.046 18.12 167.886 18.12H165.406V24.76C165.406 24.92 165.326 25 165.166 25H164.286ZM173.771 23.72C174.133 23.72 174.421 23.6133 174.635 23.4C174.859 23.176 174.971 22.8827 174.971 22.52V19.16C174.971 18.7973 174.859 18.5093 174.635 18.296C174.421 18.072 174.133 17.96 173.771 17.96H172.411C171.931 17.96 171.531 18.12 171.211 18.44C170.891 18.76 170.731 19.16 170.731 19.64V23.72H173.771ZM170.731 25V27.8C170.731 27.96 170.651 28.04 170.491 28.04H169.611C169.451 28.04 169.371 27.96 169.371 27.8V17.08C169.371 16.92 169.451 16.84 169.611 16.84H170.491C170.651 16.84 170.731 16.92 170.731 17.08V17.64H170.811C170.896 17.4587 171.019 17.2987 171.179 17.16C171.317 17.0427 171.499 16.936 171.723 16.84C171.947 16.7333 172.229 16.68 172.571 16.68H173.771C174.613 16.68 175.248 16.8933 175.675 17.32C176.112 17.7467 176.331 18.36 176.331 19.16V22.52C176.331 23.32 176.112 23.9333 175.675 24.36C175.248 24.7867 174.613 25 173.771 25H170.731ZM184.13 19.16C184.13 18.7973 184.018 18.5093 183.794 18.296C183.581 18.072 183.293 17.96 182.93 17.96H180.93C180.567 17.96 180.274 18.072 180.05 18.296C179.837 18.5093 179.73 18.7973 179.73 19.16V22.68C179.73 23.0427 179.837 23.336 180.05 23.56C180.274 23.7733 180.567 23.88 180.93 23.88H182.93C183.293 23.88 183.581 23.7733 183.794 23.56C184.018 23.336 184.13 23.0427 184.13 22.68V19.16ZM185.49 22.68C185.49 23.48 185.271 24.0933 184.834 24.52C184.407 24.9467 183.773 25.16 182.93 25.16H180.93C180.087 25.16 179.447 24.9467 179.01 24.52C178.583 24.0933 178.37 23.48 178.37 22.68V19.16C178.37 18.36 178.583 17.7467 179.01 17.32C179.447 16.8933 180.087 16.68 180.93 16.68H182.93C183.773 16.68 184.407 16.8933 184.834 17.32C185.271 17.7467 185.49 18.36 185.49 19.16V22.68ZM190.729 15.56C190.121 15.56 189.663 15.4107 189.353 15.112C189.044 14.8027 188.889 14.3653 188.889 13.8V13.4C188.889 13.24 188.969 13.16 189.129 13.16H189.849C190.009 13.16 190.089 13.24 190.089 13.4V13.8C190.089 14.2267 190.303 14.44 190.729 14.44H191.609C192.036 14.44 192.249 14.2267 192.249 13.8V13.4C192.249 13.24 192.329 13.16 192.489 13.16H193.209C193.369 13.16 193.449 13.24 193.449 13.4V13.8C193.449 14.3653 193.295 14.8027 192.985 15.112C192.676 15.4107 192.217 15.56 191.609 15.56H190.729ZM194.409 16.84C194.569 16.84 194.649 16.92 194.649 17.08V24.76C194.649 24.92 194.569 25 194.409 25H193.529C193.369 25 193.289 24.92 193.289 24.76V18.92H193.209L189.369 24.76C189.316 24.8453 189.263 24.9093 189.209 24.952C189.156 24.984 189.049 25 188.889 25H187.929C187.769 25 187.689 24.92 187.689 24.76V17.08C187.689 16.92 187.769 16.84 187.929 16.84H188.809C188.969 16.84 189.049 16.92 189.049 17.08V22.92H189.129L192.969 17.08C193.023 16.9947 193.076 16.936 193.129 16.904C193.183 16.8613 193.289 16.84 193.449 16.84H194.409ZM198.205 22.68C198.205 23.0427 198.312 23.336 198.525 23.56C198.749 23.7733 199.042 23.88 199.405 23.88H201.245C201.608 23.88 201.896 23.7733 202.109 23.56C202.333 23.336 202.445 23.0427 202.445 22.68V22.28C202.445 22.12 202.525 22.04 202.685 22.04H203.565C203.725 22.04 203.805 22.12 203.805 22.28V22.68C203.805 23.48 203.586 24.0933 203.149 24.52C202.722 24.9467 202.088 25.16 201.245 25.16H199.405C198.562 25.16 197.922 24.9467 197.485 24.52C197.058 24.0933 196.845 23.48 196.845 22.68V19.16C196.845 18.36 197.058 17.7467 197.485 17.32C197.922 16.8933 198.562 16.68 199.405 16.68H201.245C202.088 16.68 202.722 16.8933 203.149 17.32C203.586 17.7467 203.805 18.36 203.805 19.16V19.56C203.805 19.72 203.725 19.8 203.565 19.8H202.685C202.525 19.8 202.445 19.72 202.445 19.56V19.16C202.445 18.7973 202.333 18.5093 202.109 18.296C201.896 18.072 201.608 17.96 201.245 17.96H199.405C199.042 17.96 198.749 18.072 198.525 18.296C198.312 18.5093 198.205 18.7973 198.205 19.16V22.68ZM207.692 25C207.532 25 207.452 24.92 207.452 24.76V18.12H204.972C204.812 18.12 204.732 18.04 204.732 17.88V17.08C204.732 16.92 204.812 16.84 204.972 16.84H211.292C211.452 16.84 211.532 16.92 211.532 17.08V17.88C211.532 18.04 211.452 18.12 211.292 18.12H208.812V24.76C208.812 24.92 208.732 25 208.572 25H207.692ZM217.177 23.72C217.497 23.72 217.748 23.6293 217.929 23.448C218.121 23.256 218.217 23 218.217 22.68V22.52C218.217 22.2 218.121 21.9493 217.929 21.768C217.748 21.576 217.497 21.48 217.177 21.48H214.137V23.72H217.177ZM216.697 20.2C217.017 20.2 217.268 20.1093 217.449 19.928C217.641 19.736 217.737 19.48 217.737 19.16C217.737 18.84 217.641 18.5893 217.449 18.408C217.268 18.216 217.017 18.12 216.697 18.12H214.137V20.2H216.697ZM213.017 25C212.857 25 212.777 24.92 212.777 24.76V17.08C212.777 16.92 212.857 16.84 213.017 16.84H216.697C218.297 16.84 219.097 17.6133 219.097 19.16C219.097 19.48 219.038 19.7413 218.921 19.944C218.814 20.136 218.697 20.2907 218.569 20.408C218.42 20.536 218.249 20.6267 218.057 20.68V20.76C218.334 20.8133 218.585 20.9147 218.809 21.064C219.001 21.192 219.177 21.3733 219.337 21.608C219.497 21.8427 219.577 22.1467 219.577 22.52V22.68C219.577 24.2267 218.777 25 217.177 25H213.017ZM221.132 22.52C221.132 20.9733 221.932 20.2 223.532 20.2H226.492V19.16C226.492 18.7973 226.38 18.5093 226.156 18.296C225.943 18.072 225.655 17.96 225.292 17.96H224.172C223.809 17.96 223.516 18.072 223.292 18.296C223.079 18.5093 222.972 18.7973 222.972 19.16C222.972 19.32 222.892 19.4 222.732 19.4H221.852C221.692 19.4 221.612 19.32 221.612 19.16C221.612 18.36 221.825 17.7467 222.252 17.32C222.689 16.8933 223.329 16.68 224.172 16.68H225.292C226.135 16.68 226.769 16.8933 227.196 17.32C227.633 17.7467 227.852 18.36 227.852 19.16V24.76C227.852 24.92 227.772 25 227.612 25H226.732C226.572 25 226.492 24.92 226.492 24.76V24.2H226.412C226.327 24.3813 226.204 24.5413 226.044 24.68C225.905 24.7973 225.724 24.904 225.5 25C225.276 25.1067 224.993 25.16 224.652 25.16H223.532C221.932 25.16 221.132 24.3867 221.132 22.84V22.52ZM222.492 22.84C222.492 23.16 222.583 23.416 222.764 23.608C222.956 23.7893 223.212 23.88 223.532 23.88H224.812C225.292 23.88 225.692 23.72 226.012 23.4C226.332 23.08 226.492 22.68 226.492 22.2V21.48H223.532C223.212 21.48 222.956 21.576 222.764 21.768C222.583 21.9493 222.492 22.2 222.492 22.52V22.84Z" fill="#7E7E82"/>
</svg>
