<svg width="210" height="16" viewBox="0 0 210 16" fill="none" xmlns="http://www.w3.org/2000/svg">
<path d="M6.2176 7.04C7.12426 7.04 7.5776 6.58667 7.5776 5.68V3.6C7.5776 2.69333 7.12426 2.24 6.2176 2.24H1.6576V7.04H6.2176ZM1.6576 8.48V11.76C1.6576 11.92 1.5776 12 1.4176 12H0.377598C0.217598 12 0.137598 11.92 0.137598 11.76V1.04C0.137598 0.879999 0.217598 0.799999 0.377598 0.799999H6.2176C8.1376 0.799999 9.0976 1.73333 9.0976 3.6V5.68C9.0976 7.54667 8.1376 8.48 6.2176 8.48H1.6576ZM16.8251 7.2V6.16C16.8251 5.79733 16.7131 5.50933 16.4891 5.296C16.2758 5.072 15.9878 4.96 15.6251 4.96H13.7051C13.3424 4.96 13.0491 5.072 12.8251 5.296C12.6118 5.50933 12.5051 5.79733 12.5051 6.16V7.2H16.8251ZM12.5051 8.48V9.68C12.5051 10.0427 12.6118 10.336 12.8251 10.56C13.0491 10.7733 13.3424 10.88 13.7051 10.88H15.6251C15.9878 10.88 16.2758 10.7733 16.4891 10.56C16.7131 10.336 16.8251 10.0427 16.8251 9.68V9.6C16.8251 9.44 16.9051 9.36 17.0651 9.36H17.9451C18.1051 9.36 18.1851 9.44 18.1851 9.6V9.68C18.1851 10.48 17.9664 11.0933 17.5291 11.52C17.1024 11.9467 16.4678 12.16 15.6251 12.16H13.7051C12.8624 12.16 12.2224 11.9467 11.7851 11.52C11.3584 11.0933 11.1451 10.48 11.1451 9.68V6.16C11.1451 5.36 11.3584 4.74667 11.7851 4.32C12.2224 3.89333 12.8624 3.68 13.7051 3.68H15.6251C16.4678 3.68 17.1024 3.89333 17.5291 4.32C17.9664 4.74667 18.1851 5.36 18.1851 6.16V8.24C18.1851 8.4 18.1051 8.48 17.9451 8.48H12.5051ZM25.0263 10.24L27.9063 4.08C27.949 3.99467 27.997 3.936 28.0503 3.904C28.1143 3.86133 28.2263 3.84 28.3863 3.84H29.3463C29.5063 3.84 29.5863 3.92 29.5863 4.08V11.76C29.5863 11.92 29.5063 12 29.3463 12H28.4663C28.3063 12 28.2263 11.92 28.2263 11.76V6.48H28.1463L25.6663 11.76C25.6237 11.8453 25.5703 11.9093 25.5063 11.952C25.453 11.984 25.3463 12 25.1863 12H24.7863C24.6263 12 24.5143 11.984 24.4503 11.952C24.397 11.9093 24.349 11.8453 24.3063 11.76L21.8263 6.48H21.7463V11.76C21.7463 11.92 21.6663 12 21.5063 12H20.6263C20.4663 12 20.3863 11.92 20.3863 11.76V4.08C20.3863 3.92 20.4663 3.84 20.6263 3.84H21.5863C21.7463 3.84 21.853 3.86133 21.9063 3.904C21.9703 3.936 22.0237 3.99467 22.0663 4.08L24.9463 10.24H25.0263ZM37.552 6.16C37.552 5.79733 37.44 5.50933 37.216 5.296C37.0026 5.072 36.7146 4.96 36.352 4.96H34.352C33.9893 4.96 33.696 5.072 33.472 5.296C33.2586 5.50933 33.152 5.79733 33.152 6.16V9.68C33.152 10.0427 33.2586 10.336 33.472 10.56C33.696 10.7733 33.9893 10.88 34.352 10.88H36.352C36.7146 10.88 37.0026 10.7733 37.216 10.56C37.44 10.336 37.552 10.0427 37.552 9.68V6.16ZM38.912 9.68C38.912 10.48 38.6933 11.0933 38.256 11.52C37.8293 11.9467 37.1946 12.16 36.352 12.16H34.352C33.5093 12.16 32.8693 11.9467 32.432 11.52C32.0053 11.0933 31.792 10.48 31.792 9.68V6.16C31.792 5.36 32.0053 4.74667 32.432 4.32C32.8693 3.89333 33.5093 3.68 34.352 3.68H36.352C37.1946 3.68 37.8293 3.89333 38.256 4.32C38.6933 4.74667 38.912 5.36 38.912 6.16V9.68ZM42.4713 8.48V11.76C42.4713 11.92 42.3913 12 42.2313 12H41.3513C41.1913 12 41.1113 11.92 41.1113 11.76V4.08C41.1113 3.92 41.1913 3.84 41.3513 3.84H42.2313C42.3913 3.84 42.4713 3.92 42.4713 4.08V7.28H46.5513V4.08C46.5513 3.92 46.6313 3.84 46.7913 3.84H47.6713C47.8313 3.84 47.9113 3.92 47.9113 4.08V11.76C47.9113 11.92 47.8313 12 47.6713 12H46.7913C46.6313 12 46.5513 11.92 46.5513 11.76V8.48H42.4713ZM52.1107 12C51.9507 12 51.8707 11.92 51.8707 11.76V5.12H49.3907C49.2307 5.12 49.1507 5.04 49.1507 4.88V4.08C49.1507 3.92 49.2307 3.84 49.3907 3.84H55.7107C55.8707 3.84 55.9507 3.92 55.9507 4.08V4.88C55.9507 5.04 55.8707 5.12 55.7107 5.12H53.2307V11.76C53.2307 11.92 53.1507 12 52.9907 12H52.1107ZM63.9157 3.84C64.0757 3.84 64.1557 3.92 64.1557 4.08V11.76C64.1557 11.92 64.0757 12 63.9157 12H63.0357C62.8757 12 62.7957 11.92 62.7957 11.76V5.92H62.7157L58.8757 11.76C58.8224 11.8453 58.7691 11.9093 58.7157 11.952C58.6624 11.984 58.5557 12 58.3957 12H57.4357C57.2757 12 57.1957 11.92 57.1957 11.76V4.08C57.1957 3.92 57.2757 3.84 57.4357 3.84H58.3157C58.4757 3.84 58.5557 3.92 58.5557 4.08V9.92H58.6357L62.4757 4.08C62.5291 3.99467 62.5824 3.936 62.6357 3.904C62.6891 3.86133 62.7957 3.84 62.9557 3.84H63.9157ZM70.9113 10.72C71.274 10.72 71.562 10.6133 71.7753 10.4C71.9993 10.176 72.1113 9.88267 72.1113 9.52V6.16C72.1113 5.79733 71.9993 5.50933 71.7753 5.296C71.562 5.072 71.274 4.96 70.9113 4.96H69.5513C69.0713 4.96 68.6713 5.12 68.3513 5.44C68.0313 5.76 67.8713 6.16 67.8713 6.64V10.72H70.9113ZM67.8713 12V14.8C67.8713 14.96 67.7913 15.04 67.6313 15.04H66.7513C66.5913 15.04 66.5113 14.96 66.5113 14.8V4.08C66.5113 3.92 66.5913 3.84 66.7513 3.84H67.6313C67.7913 3.84 67.8713 3.92 67.8713 4.08V4.64H67.9513C68.0367 4.45867 68.1593 4.29867 68.3193 4.16C68.458 4.04267 68.6393 3.936 68.8633 3.84C69.0873 3.73333 69.37 3.68 69.7113 3.68H70.9113C71.754 3.68 72.3887 3.89333 72.8153 4.32C73.2527 4.74667 73.4713 5.36 73.4713 6.16V9.52C73.4713 10.32 73.2527 10.9333 72.8153 11.36C72.3887 11.7867 71.754 12 70.9113 12H67.8713ZM80.7427 4.08C80.7747 3.99467 80.8174 3.936 80.8707 3.904C80.9347 3.86133 81.0254 3.84 81.1427 3.84H82.1027C82.2734 3.84 82.3267 3.92 82.2627 4.08L79.1427 12C78.9187 12.5653 78.7001 13.04 78.4867 13.424C78.2734 13.808 78.0441 14.1173 77.7987 14.352C77.5534 14.5973 77.2867 14.7733 76.9987 14.88C76.7107 14.9867 76.3854 15.04 76.0227 15.04H75.7027C75.5427 15.04 75.4627 14.96 75.4627 14.8V14C75.4627 13.84 75.5427 13.76 75.7027 13.76H76.0227C76.4281 13.76 76.7587 13.6267 77.0147 13.36C77.2814 13.0933 77.5374 12.64 77.7827 12L74.6627 4.08C74.5987 3.92 74.6521 3.84 74.8227 3.84H75.7827C75.9001 3.84 75.9854 3.86133 76.0387 3.904C76.1027 3.936 76.1507 3.99467 76.1827 4.08L78.4227 10.08H78.5027L80.7427 4.08ZM89.1313 7.2V6.16C89.1313 5.79733 89.0193 5.50933 88.7953 5.296C88.582 5.072 88.294 4.96 87.9313 4.96H86.0113C85.6487 4.96 85.3553 5.072 85.1313 5.296C84.918 5.50933 84.8113 5.79733 84.8113 6.16V7.2H89.1313ZM84.8113 8.48V9.68C84.8113 10.0427 84.918 10.336 85.1313 10.56C85.3553 10.7733 85.6487 10.88 86.0113 10.88H87.9313C88.294 10.88 88.582 10.7733 88.7953 10.56C89.0193 10.336 89.1313 10.0427 89.1313 9.68V9.6C89.1313 9.44 89.2113 9.36 89.3713 9.36H90.2513C90.4113 9.36 90.4913 9.44 90.4913 9.6V9.68C90.4913 10.48 90.2727 11.0933 89.8353 11.52C89.4087 11.9467 88.774 12.16 87.9313 12.16H86.0113C85.1687 12.16 84.5287 11.9467 84.0913 11.52C83.6647 11.0933 83.4513 10.48 83.4513 9.68V6.16C83.4513 5.36 83.6647 4.74667 84.0913 4.32C84.5287 3.89333 85.1687 3.68 86.0113 3.68H87.9313C88.774 3.68 89.4087 3.89333 89.8353 4.32C90.2727 4.74667 90.4913 5.36 90.4913 6.16V8.24C90.4913 8.4 90.4113 8.48 90.2513 8.48H84.8113ZM97.3326 10.24L100.213 4.08C100.255 3.99467 100.303 3.936 100.357 3.904C100.421 3.86133 100.533 3.84 100.693 3.84H101.653C101.813 3.84 101.893 3.92 101.893 4.08V11.76C101.893 11.92 101.813 12 101.653 12H100.773C100.613 12 100.533 11.92 100.533 11.76V6.48H100.453L97.9726 11.76C97.9299 11.8453 97.8766 11.9093 97.8126 11.952C97.7593 11.984 97.6526 12 97.4926 12H97.0926C96.9326 12 96.8206 11.984 96.7566 11.952C96.7033 11.9093 96.6553 11.8453 96.6126 11.76L94.1326 6.48H94.0526V11.76C94.0526 11.92 93.9726 12 93.8126 12H92.9326C92.7726 12 92.6926 11.92 92.6926 11.76V4.08C92.6926 3.92 92.7726 3.84 92.9326 3.84H93.8926C94.0526 3.84 94.1593 3.86133 94.2126 3.904C94.2766 3.936 94.3299 3.99467 94.3726 4.08L97.2526 10.24H97.3326ZM108.098 10.72C108.418 10.72 108.669 10.6293 108.85 10.448C109.042 10.256 109.138 10 109.138 9.68V8.88C109.138 8.56 109.042 8.30933 108.85 8.128C108.669 7.936 108.418 7.84 108.098 7.84H105.618V10.72H108.098ZM104.498 12C104.338 12 104.258 11.92 104.258 11.76V4.08C104.258 3.92 104.338 3.84 104.498 3.84H105.378C105.538 3.84 105.618 3.92 105.618 4.08V6.56H108.098C109.698 6.56 110.498 7.33333 110.498 8.88V9.68C110.498 11.2267 109.698 12 108.098 12H104.498ZM113.218 11.76C113.218 11.92 113.138 12 112.978 12H112.098C111.938 12 111.858 11.92 111.858 11.76V4.08C111.858 3.92 111.938 3.84 112.098 3.84H112.978C113.138 3.84 113.218 3.92 113.218 4.08V11.76ZM121.094 7.2V6.16C121.094 5.79733 120.982 5.50933 120.758 5.296C120.545 5.072 120.257 4.96 119.894 4.96H117.974C117.611 4.96 117.318 5.072 117.094 5.296C116.881 5.50933 116.774 5.79733 116.774 6.16V7.2H121.094ZM116.774 8.48V9.68C116.774 10.0427 116.881 10.336 117.094 10.56C117.318 10.7733 117.611 10.88 117.974 10.88H119.894C120.257 10.88 120.545 10.7733 120.758 10.56C120.982 10.336 121.094 10.0427 121.094 9.68V9.6C121.094 9.44 121.174 9.36 121.334 9.36H122.214C122.374 9.36 122.454 9.44 122.454 9.6V9.68C122.454 10.48 122.235 11.0933 121.798 11.52C121.371 11.9467 120.737 12.16 119.894 12.16H117.974C117.131 12.16 116.491 11.9467 116.054 11.52C115.627 11.0933 115.414 10.48 115.414 9.68V6.16C115.414 5.36 115.627 4.74667 116.054 4.32C116.491 3.89333 117.131 3.68 117.974 3.68H119.894C120.737 3.68 121.371 3.89333 121.798 4.32C122.235 4.74667 122.454 5.36 122.454 6.16V8.24C122.454 8.4 122.374 8.48 122.214 8.48H116.774ZM132.73 4.08C132.762 3.99467 132.805 3.936 132.858 3.904C132.922 3.86133 133.013 3.84 133.13 3.84H134.09C134.261 3.84 134.314 3.92 134.25 4.08L131.13 12C130.906 12.5653 130.688 13.04 130.474 13.424C130.261 13.808 130.032 14.1173 129.786 14.352C129.541 14.5973 129.274 14.7733 128.986 14.88C128.698 14.9867 128.373 15.04 128.01 15.04H127.69C127.53 15.04 127.45 14.96 127.45 14.8V14C127.45 13.84 127.53 13.76 127.69 13.76H128.01C128.416 13.76 128.746 13.6267 129.002 13.36C129.269 13.0933 129.525 12.64 129.77 12L126.65 4.08C126.586 3.92 126.64 3.84 126.81 3.84H127.77C127.888 3.84 127.973 3.86133 128.026 3.904C128.09 3.936 128.138 3.99467 128.17 4.08L130.41 10.08H130.49L132.73 4.08ZM136.799 9.68C136.799 10.0427 136.906 10.336 137.119 10.56C137.343 10.7733 137.636 10.88 137.999 10.88H139.839C140.202 10.88 140.49 10.7733 140.703 10.56C140.927 10.336 141.039 10.0427 141.039 9.68V9.28C141.039 9.12 141.119 9.04 141.279 9.04H142.159C142.319 9.04 142.399 9.12 142.399 9.28V9.68C142.399 10.48 142.18 11.0933 141.743 11.52C141.316 11.9467 140.682 12.16 139.839 12.16H137.999C137.156 12.16 136.516 11.9467 136.079 11.52C135.652 11.0933 135.439 10.48 135.439 9.68V6.16C135.439 5.36 135.652 4.74667 136.079 4.32C136.516 3.89333 137.156 3.68 137.999 3.68H139.839C140.682 3.68 141.316 3.89333 141.743 4.32C142.18 4.74667 142.399 5.36 142.399 6.16V6.56C142.399 6.72 142.319 6.8 142.159 6.8H141.279C141.119 6.8 141.039 6.72 141.039 6.56V6.16C141.039 5.79733 140.927 5.50933 140.703 5.296C140.49 5.072 140.202 4.96 139.839 4.96H137.999C137.636 4.96 137.343 5.072 137.119 5.296C136.906 5.50933 136.799 5.79733 136.799 6.16V9.68ZM146.286 12C146.126 12 146.046 11.92 146.046 11.76V5.12H143.566C143.406 5.12 143.326 5.04 143.326 4.88V4.08C143.326 3.92 143.406 3.84 143.566 3.84H149.886C150.046 3.84 150.126 3.92 150.126 4.08V4.88C150.126 5.04 150.046 5.12 149.886 5.12H147.406V11.76C147.406 11.92 147.326 12 147.166 12H146.286ZM155.771 10.72C156.133 10.72 156.421 10.6133 156.635 10.4C156.859 10.176 156.971 9.88267 156.971 9.52V6.16C156.971 5.79733 156.859 5.50933 156.635 5.296C156.421 5.072 156.133 4.96 155.771 4.96H154.411C153.931 4.96 153.531 5.12 153.211 5.44C152.891 5.76 152.731 6.16 152.731 6.64V10.72H155.771ZM152.731 12V14.8C152.731 14.96 152.651 15.04 152.491 15.04H151.611C151.451 15.04 151.371 14.96 151.371 14.8V4.08C151.371 3.92 151.451 3.84 151.611 3.84H152.491C152.651 3.84 152.731 3.92 152.731 4.08V4.64H152.811C152.896 4.45867 153.019 4.29867 153.179 4.16C153.317 4.04267 153.499 3.936 153.723 3.84C153.947 3.73333 154.229 3.68 154.571 3.68H155.771C156.613 3.68 157.248 3.89333 157.675 4.32C158.112 4.74667 158.331 5.36 158.331 6.16V9.52C158.331 10.32 158.112 10.9333 157.675 11.36C157.248 11.7867 156.613 12 155.771 12H152.731ZM166.13 6.16C166.13 5.79733 166.018 5.50933 165.794 5.296C165.581 5.072 165.293 4.96 164.93 4.96H162.93C162.567 4.96 162.274 5.072 162.05 5.296C161.837 5.50933 161.73 5.79733 161.73 6.16V9.68C161.73 10.0427 161.837 10.336 162.05 10.56C162.274 10.7733 162.567 10.88 162.93 10.88H164.93C165.293 10.88 165.581 10.7733 165.794 10.56C166.018 10.336 166.13 10.0427 166.13 9.68V6.16ZM167.49 9.68C167.49 10.48 167.271 11.0933 166.834 11.52C166.407 11.9467 165.773 12.16 164.93 12.16H162.93C162.087 12.16 161.447 11.9467 161.01 11.52C160.583 11.0933 160.37 10.48 160.37 9.68V6.16C160.37 5.36 160.583 4.74667 161.01 4.32C161.447 3.89333 162.087 3.68 162.93 3.68H164.93C165.773 3.68 166.407 3.89333 166.834 4.32C167.271 4.74667 167.49 5.36 167.49 6.16V9.68ZM172.729 2.56C172.121 2.56 171.663 2.41067 171.353 2.112C171.044 1.80267 170.889 1.36533 170.889 0.799999V0.4C170.889 0.24 170.969 0.16 171.129 0.16H171.849C172.009 0.16 172.089 0.24 172.089 0.4V0.799999C172.089 1.22667 172.303 1.44 172.729 1.44H173.609C174.036 1.44 174.249 1.22667 174.249 0.799999V0.4C174.249 0.24 174.329 0.16 174.489 0.16H175.209C175.369 0.16 175.449 0.24 175.449 0.4V0.799999C175.449 1.36533 175.295 1.80267 174.985 2.112C174.676 2.41067 174.217 2.56 173.609 2.56H172.729ZM176.409 3.84C176.569 3.84 176.649 3.92 176.649 4.08V11.76C176.649 11.92 176.569 12 176.409 12H175.529C175.369 12 175.289 11.92 175.289 11.76V5.92H175.209L171.369 11.76C171.316 11.8453 171.263 11.9093 171.209 11.952C171.156 11.984 171.049 12 170.889 12H169.929C169.769 12 169.689 11.92 169.689 11.76V4.08C169.689 3.92 169.769 3.84 169.929 3.84H170.809C170.969 3.84 171.049 3.92 171.049 4.08V9.92H171.129L174.969 4.08C175.023 3.99467 175.076 3.936 175.129 3.904C175.183 3.86133 175.289 3.84 175.449 3.84H176.409ZM180.205 9.68C180.205 10.0427 180.312 10.336 180.525 10.56C180.749 10.7733 181.042 10.88 181.405 10.88H183.245C183.608 10.88 183.896 10.7733 184.109 10.56C184.333 10.336 184.445 10.0427 184.445 9.68V9.28C184.445 9.12 184.525 9.04 184.685 9.04H185.565C185.725 9.04 185.805 9.12 185.805 9.28V9.68C185.805 10.48 185.586 11.0933 185.149 11.52C184.722 11.9467 184.088 12.16 183.245 12.16H181.405C180.562 12.16 179.922 11.9467 179.485 11.52C179.058 11.0933 178.845 10.48 178.845 9.68V6.16C178.845 5.36 179.058 4.74667 179.485 4.32C179.922 3.89333 180.562 3.68 181.405 3.68H183.245C184.088 3.68 184.722 3.89333 185.149 4.32C185.586 4.74667 185.805 5.36 185.805 6.16V6.56C185.805 6.72 185.725 6.8 185.565 6.8H184.685C184.525 6.8 184.445 6.72 184.445 6.56V6.16C184.445 5.79733 184.333 5.50933 184.109 5.296C183.896 5.072 183.608 4.96 183.245 4.96H181.405C181.042 4.96 180.749 5.072 180.525 5.296C180.312 5.50933 180.205 5.79733 180.205 6.16V9.68ZM189.692 12C189.532 12 189.452 11.92 189.452 11.76V5.12H186.972C186.812 5.12 186.732 5.04 186.732 4.88V4.08C186.732 3.92 186.812 3.84 186.972 3.84H193.292C193.452 3.84 193.532 3.92 193.532 4.08V4.88C193.532 5.04 193.452 5.12 193.292 5.12H190.812V11.76C190.812 11.92 190.732 12 190.572 12H189.692ZM199.177 10.72C199.497 10.72 199.748 10.6293 199.929 10.448C200.121 10.256 200.217 10 200.217 9.68V9.52C200.217 9.2 200.121 8.94933 199.929 8.768C199.748 8.576 199.497 8.48 199.177 8.48H196.137V10.72H199.177ZM198.697 7.2C199.017 7.2 199.268 7.10933 199.449 6.928C199.641 6.736 199.737 6.48 199.737 6.16C199.737 5.84 199.641 5.58933 199.449 5.408C199.268 5.216 199.017 5.12 198.697 5.12H196.137V7.2H198.697ZM195.017 12C194.857 12 194.777 11.92 194.777 11.76V4.08C194.777 3.92 194.857 3.84 195.017 3.84H198.697C200.297 3.84 201.097 4.61333 201.097 6.16C201.097 6.48 201.038 6.74133 200.921 6.944C200.814 7.136 200.697 7.29067 200.569 7.408C200.42 7.536 200.249 7.62667 200.057 7.68V7.76C200.334 7.81333 200.585 7.91467 200.809 8.064C201.001 8.192 201.177 8.37333 201.337 8.608C201.497 8.84267 201.577 9.14667 201.577 9.52V9.68C201.577 11.2267 200.777 12 199.177 12H195.017ZM203.132 9.52C203.132 7.97333 203.932 7.2 205.532 7.2H208.492V6.16C208.492 5.79733 208.38 5.50933 208.156 5.296C207.943 5.072 207.655 4.96 207.292 4.96H206.172C205.809 4.96 205.516 5.072 205.292 5.296C205.079 5.50933 204.972 5.79733 204.972 6.16C204.972 6.32 204.892 6.4 204.732 6.4H203.852C203.692 6.4 203.612 6.32 203.612 6.16C203.612 5.36 203.825 4.74667 204.252 4.32C204.689 3.89333 205.329 3.68 206.172 3.68H207.292C208.135 3.68 208.769 3.89333 209.196 4.32C209.633 4.74667 209.852 5.36 209.852 6.16V11.76C209.852 11.92 209.772 12 209.612 12H208.732C208.572 12 208.492 11.92 208.492 11.76V11.2H208.412C208.327 11.3813 208.204 11.5413 208.044 11.68C207.905 11.7973 207.724 11.904 207.5 12C207.276 12.1067 206.993 12.16 206.652 12.16H205.532C203.932 12.16 203.132 11.3867 203.132 9.84V9.52ZM204.492 9.84C204.492 10.16 204.583 10.416 204.764 10.608C204.956 10.7893 205.212 10.88 205.532 10.88H206.812C207.292 10.88 207.692 10.72 208.012 10.4C208.332 10.08 208.492 9.68 208.492 9.2V8.48H205.532C205.212 8.48 204.956 8.576 204.764 8.768C204.583 8.94933 204.492 9.2 204.492 9.52V9.84Z" fill="#7E7E82"/>
</svg>
