<svg width="232" height="26" viewBox="0 0 232 26" fill="none" xmlns="http://www.w3.org/2000/svg">
<path d="M1.084 1.1C0.990667 0.894666 0.981333 0.726666 1.056 0.595999C1.14933 0.465332 1.29867 0.399999 1.504 0.399999H4.864C5.144 0.399999 5.37733 0.465332 5.564 0.595999C5.75067 0.726666 5.89067 0.894666 5.984 1.1L10.324 10.48H10.604L14.384 1.1C14.5707 0.633332 14.944 0.399999 15.504 0.399999H18.864C19.0693 0.399999 19.2093 0.465332 19.284 0.595999C19.3773 0.726666 19.3773 0.894666 19.284 1.1L12.844 15.66C12.5267 16.388 12.172 17.0413 11.78 17.62C11.4067 18.1987 10.9587 18.684 10.436 19.076C9.91333 19.468 9.316 19.7667 8.644 19.972C7.972 20.1773 7.17867 20.28 6.264 20.28H5.144C4.67733 20.28 4.444 20.0467 4.444 19.58V17.06C4.444 16.5933 4.67733 16.36 5.144 16.36H6.264C6.74933 16.36 7.132 16.2387 7.412 15.996C7.692 15.7347 7.86933 15.3893 7.944 14.96L1.084 1.1ZM31.5128 10.9C31.5128 11.3667 31.2795 11.6 30.8128 11.6H28.2928C27.8261 11.6 27.5928 11.3667 27.5928 10.9V10.34C27.5928 9.91067 27.4621 9.57467 27.2008 9.332C26.9581 9.07067 26.6221 8.94 26.1928 8.94H23.5328C23.1035 8.94 22.7581 9.07067 22.4968 9.332C22.2541 9.57467 22.1328 9.91067 22.1328 10.34V15.38C22.1328 15.8093 22.2541 16.1547 22.4968 16.416C22.7581 16.6587 23.1035 16.78 23.5328 16.78H26.1928C26.6221 16.78 26.9581 16.6587 27.2008 16.416C27.4621 16.1547 27.5928 15.8093 27.5928 15.38V14.82C27.5928 14.3533 27.8261 14.12 28.2928 14.12H30.8128C31.2795 14.12 31.5128 14.3533 31.5128 14.82V15.94C31.5128 17.34 31.1395 18.4133 30.3928 19.16C29.6461 19.9067 28.5728 20.28 27.1728 20.28H22.5528C21.1528 20.28 20.0795 19.9067 19.3328 19.16C18.5861 18.4133 18.2128 17.34 18.2128 15.94V9.78C18.2128 8.38 18.5861 7.30667 19.3328 6.56C20.0795 5.81333 21.1528 5.44 22.5528 5.44H27.1728C28.5728 5.44 29.6461 5.81333 30.3928 6.56C31.1395 7.30667 31.5128 8.38 31.5128 9.78V10.9ZM38.7517 16.22C38.4904 17.564 37.9771 18.5813 37.2117 19.272C36.4464 19.944 35.3264 20.28 33.8517 20.28H33.0117C32.5451 20.28 32.3117 20.0467 32.3117 19.58V17.48C32.3117 17.0133 32.5451 16.78 33.0117 16.78H33.4317C33.8611 16.78 34.2064 16.6587 34.4677 16.416C34.7291 16.1733 34.8971 15.8747 34.9717 15.52L36.9317 6.42C37.0251 5.95333 37.3517 5.72 37.9117 5.72H46.4517C46.9184 5.72 47.1517 5.95333 47.1517 6.42V19.3C47.1517 19.7667 46.9184 20 46.4517 20H43.9317C43.4651 20 43.2317 19.7667 43.2317 19.3V9.22H40.1517L38.7517 16.22ZM58.3913 6.42C58.466 6.21467 58.578 6.04667 58.7273 5.916C58.8767 5.78533 59.0913 5.72 59.3713 5.72H62.1713C62.638 5.72 62.778 5.95333 62.5913 6.42L57.2713 20.84C56.786 22.1653 56.0673 23.2387 55.1153 24.06C54.1633 24.9 52.922 25.32 51.3913 25.32H50.5513C50.0847 25.32 49.8513 25.0867 49.8513 24.62V22.52C49.8513 22.0533 50.0847 21.82 50.5513 21.82H51.3913C51.8767 21.82 52.2593 21.7173 52.5393 21.512C52.8193 21.3253 53.034 21.1013 53.1833 20.84C53.3513 20.56 53.454 20.2333 53.4913 19.86L48.3113 6.42C48.1247 5.95333 48.2647 5.72 48.7313 5.72H51.5313C51.8113 5.72 52.026 5.78533 52.1753 5.916C52.3247 6.04667 52.4367 6.21467 52.5113 6.42L55.4513 14.68H55.7313L58.3913 6.42ZM63.7448 6.42C63.7448 5.95333 63.9782 5.72 64.4448 5.72H73.9648C74.4315 5.72 74.6648 5.95333 74.6648 6.42V8.52C74.6648 8.98667 74.4315 9.22 73.9648 9.22H67.6648V19.3C67.6648 19.7667 67.4315 20 66.9648 20H64.4448C63.9782 20 63.7448 19.7667 63.7448 19.3V6.42ZM84.9838 6.42C85.1331 6.21467 85.2824 6.04667 85.4318 5.916C85.5998 5.78533 85.8238 5.72 86.1038 5.72H88.7638C89.2304 5.72 89.4638 5.95333 89.4638 6.42V19.3C89.4638 19.7667 89.2304 20 88.7638 20H86.2438C85.7771 20 85.5438 19.7667 85.5438 19.3V11.88H85.2638L80.5038 19.3C80.3544 19.5053 80.1958 19.6733 80.0278 19.804C79.8784 19.9347 79.6638 20 79.3838 20H76.7238C76.2571 20 76.0238 19.7667 76.0238 19.3V6.42C76.0238 5.95333 76.2571 5.72 76.7238 5.72H79.2438C79.7104 5.72 79.9438 5.95333 79.9438 6.42V13.84H80.2238L84.9838 6.42ZM106.452 6.42C106.601 6.21467 106.75 6.04667 106.9 5.916C107.068 5.78533 107.292 5.72 107.572 5.72H110.232C110.698 5.72 110.932 5.95333 110.932 6.42V19.3C110.932 19.7667 110.698 20 110.232 20H107.712C107.245 20 107.012 19.7667 107.012 19.3V11.88H106.732L101.972 19.3C101.822 19.5053 101.664 19.6733 101.496 19.804C101.346 19.9347 101.132 20 100.852 20H98.1917C97.7251 20 97.4917 19.7667 97.4917 19.3V6.42C97.4917 5.95333 97.7251 5.72 98.1917 5.72H100.712C101.178 5.72 101.412 5.95333 101.412 6.42V13.84H101.692L106.452 6.42ZM132.26 10.9C132.26 11.3667 132.026 11.6 131.56 11.6H129.04C128.573 11.6 128.34 11.3667 128.34 10.9V10.34C128.34 9.91067 128.209 9.57467 127.948 9.332C127.705 9.07067 127.369 8.94 126.94 8.94H124.28C123.85 8.94 123.505 9.07067 123.244 9.332C123.001 9.57467 122.88 9.91067 122.88 10.34V15.38C122.88 15.8093 123.001 16.1547 123.244 16.416C123.505 16.6587 123.85 16.78 124.28 16.78H126.94C127.369 16.78 127.705 16.6587 127.948 16.416C128.209 16.1547 128.34 15.8093 128.34 15.38V14.82C128.34 14.3533 128.573 14.12 129.04 14.12H131.56C132.026 14.12 132.26 14.3533 132.26 14.82V15.94C132.26 17.34 131.886 18.4133 131.14 19.16C130.393 19.9067 129.32 20.28 127.92 20.28H123.3C121.9 20.28 120.826 19.9067 120.08 19.16C119.333 18.4133 118.96 17.34 118.96 15.94V9.78C118.96 8.38 119.333 7.30667 120.08 6.56C120.826 5.81333 121.9 5.44 123.3 5.44H127.92C129.32 5.44 130.393 5.81333 131.14 6.56C131.886 7.30667 132.26 8.38 132.26 9.78V10.9ZM143.139 16.78C143.699 16.78 143.979 16.5 143.979 15.94C143.979 15.4733 144.212 15.24 144.679 15.24H147.199C147.665 15.24 147.899 15.4733 147.899 15.94C147.899 17.34 147.525 18.4133 146.779 19.16C146.032 19.9067 144.959 20.28 143.559 20.28H139.079C137.679 20.28 136.605 19.9067 135.859 19.16C135.112 18.4133 134.739 17.34 134.739 15.94V9.78C134.739 8.38 135.112 7.30667 135.859 6.56C136.605 5.81333 137.679 5.44 139.079 5.44H143.699C145.099 5.44 146.172 5.81333 146.919 6.56C147.665 7.30667 148.039 8.38 148.039 9.78V13.42C148.039 13.8867 147.805 14.12 147.339 14.12H138.659V15.38C138.659 15.8093 138.78 16.1547 139.023 16.416C139.284 16.6587 139.629 16.78 140.059 16.78H143.139ZM138.659 11.04H144.119V10.2C144.119 9.77067 143.988 9.43467 143.727 9.192C143.484 8.93067 143.148 8.8 142.719 8.8H140.059C139.629 8.8 139.284 8.93067 139.023 9.192C138.78 9.43467 138.659 9.77067 138.659 10.2V11.04ZM159.751 5.44C161.151 5.44 162.224 5.81333 162.971 6.56C163.718 7.30667 164.091 8.38 164.091 9.78V15.66C164.091 17.06 163.718 18.1333 162.971 18.88C162.224 19.6267 161.151 20 159.751 20H154.711V24.62C154.711 25.0867 154.478 25.32 154.011 25.32H151.491C151.024 25.32 150.791 25.0867 150.791 24.62V6.42C150.791 5.95333 151.024 5.72 151.491 5.72H154.011C154.478 5.72 154.711 5.95333 154.711 6.42V7.12H154.991C155.047 6.80267 155.178 6.52267 155.383 6.28C155.551 6.07467 155.784 5.888 156.083 5.72C156.4 5.53333 156.83 5.44 157.371 5.44H159.751ZM158.771 16.5C159.2 16.5 159.536 16.3787 159.779 16.136C160.04 15.8747 160.171 15.5293 160.171 15.1V10.34C160.171 9.91067 160.04 9.57467 159.779 9.332C159.536 9.07067 159.2 8.94 158.771 8.94H156.391C155.906 8.94 155.504 9.09867 155.187 9.416C154.87 9.73333 154.711 10.1347 154.711 10.62V16.5H158.771ZM174.683 5.72C176.083 5.72 177.157 6.084 177.903 6.812C178.65 7.52133 179.023 8.51067 179.023 9.78C179.023 10.2653 178.939 10.6667 178.771 10.984C178.622 11.3013 178.445 11.5627 178.239 11.768C178.015 11.992 177.763 12.1693 177.483 12.3V12.58C177.931 12.692 178.323 12.8787 178.659 13.14C178.958 13.364 179.229 13.6907 179.471 14.12C179.733 14.5307 179.863 15.0907 179.863 15.8C179.863 17.144 179.49 18.18 178.743 18.908C177.997 19.636 176.923 20 175.523 20H167.543C167.077 20 166.843 19.7667 166.843 19.3V6.42C166.843 5.95333 167.077 5.72 167.543 5.72H174.683ZM175.943 15.52C175.943 14.7733 175.57 14.4 174.823 14.4H170.763V16.64H174.823C175.57 16.64 175.943 16.2667 175.943 15.52ZM175.103 10.06C175.103 9.78 175.01 9.54667 174.823 9.36C174.637 9.17333 174.403 9.08 174.123 9.08H170.763V11.04H174.123C174.403 11.04 174.637 10.9467 174.823 10.76C175.01 10.5733 175.103 10.34 175.103 10.06ZM191.035 6.42C191.185 6.21467 191.334 6.04667 191.483 5.916C191.651 5.78533 191.875 5.72 192.155 5.72H194.815C195.282 5.72 195.515 5.95333 195.515 6.42V19.3C195.515 19.7667 195.282 20 194.815 20H192.295C191.829 20 191.595 19.7667 191.595 19.3V11.88H191.315L186.555 19.3C186.406 19.5053 186.247 19.6733 186.079 19.804C185.93 19.9347 185.715 20 185.435 20H182.775C182.309 20 182.075 19.7667 182.075 19.3V6.42C182.075 5.95333 182.309 5.72 182.775 5.72H185.295C185.762 5.72 185.995 5.95333 185.995 6.42V13.84H186.275L191.035 6.42ZM211.564 10.9C211.564 11.3667 211.331 11.6 210.864 11.6H208.344C207.878 11.6 207.644 11.3667 207.644 10.9V10.34C207.644 9.91067 207.514 9.57467 207.252 9.332C207.01 9.07067 206.674 8.94 206.244 8.94H203.584C203.155 8.94 202.81 9.07067 202.548 9.332C202.306 9.57467 202.184 9.91067 202.184 10.34V15.38C202.184 15.8093 202.306 16.1547 202.548 16.416C202.81 16.6587 203.155 16.78 203.584 16.78H206.244C206.674 16.78 207.01 16.6587 207.252 16.416C207.514 16.1547 207.644 15.8093 207.644 15.38V14.82C207.644 14.3533 207.878 14.12 208.344 14.12H210.864C211.331 14.12 211.564 14.3533 211.564 14.82V15.94C211.564 17.34 211.191 18.4133 210.444 19.16C209.698 19.9067 208.624 20.28 207.224 20.28H202.604C201.204 20.28 200.131 19.9067 199.384 19.16C198.638 18.4133 198.264 17.34 198.264 15.94V9.78C198.264 8.38 198.638 7.30667 199.384 6.56C200.131 5.81333 201.204 5.44 202.604 5.44H207.224C208.624 5.44 209.698 5.81333 210.444 6.56C211.191 7.30667 211.564 8.38 211.564 9.78V10.9ZM217.263 5.72C217.73 5.72 217.963 5.95333 217.963 6.42V9.92H221.743C223.143 9.92 224.217 10.2933 224.963 11.04C225.71 11.7867 226.083 12.86 226.083 14.26V15.66C226.083 17.06 225.71 18.1333 224.963 18.88C224.217 19.6267 223.143 20 221.743 20H214.743C214.277 20 214.043 19.7667 214.043 19.3V6.42C214.043 5.95333 214.277 5.72 214.743 5.72H217.263ZM222.163 14.68C222.163 14.2507 222.033 13.9147 221.771 13.672C221.529 13.4107 221.193 13.28 220.763 13.28H217.963V16.64H220.763C221.193 16.64 221.529 16.5187 221.771 16.276C222.033 16.0147 222.163 15.6693 222.163 15.24V14.68ZM230.983 5.72C231.45 5.72 231.683 5.95333 231.683 6.42V19.3C231.683 19.7667 231.45 20 230.983 20H228.463C227.997 20 227.763 19.7667 227.763 19.3V6.42C227.763 5.95333 227.997 5.72 228.463 5.72H230.983Z" fill="#1B1C21"/>
</svg>
